{"accessors":[{"bufferView":2,"componentType":5126,"count":7424,"max":[68.98296356201172,135.86407470703125,147.4424591064453],"min":[-68.98391723632812,15.526751518249512,-152.47317504882812],"type":"VEC3"},{"bufferView":2,"byteOffset":89088,"componentType":5126,"count":7424,"max":[0.9999998807907104,1.0,1.0],"min":[-0.9999998807907104,-0.9999992251396179,-0.9999942779541016],"type":"VEC3"},{"bufferView":3,"componentType":5126,"count":7424,"max":[1.0,0.9999974370002747,1.0,1.0],"min":[-1.0,-0.9990798830986023,-1.0,-1.0],"type":"VEC4"},{"bufferView":1,"componentType":5126,"count":7424,"max":[0.9973801970481873,0.9979758262634277],"min":[0.002404153347015381,0.005287528038024902],"type":"VEC2"},{"bufferView":0,"componentType":5125,"count":35094,"type":"SCALAR"},{"bufferView":2,"byteOffset":178176,"componentType":5126,"count":3736,"max":[68.6368637084961,49.2213134765625,127.73611450195312],"min":[-68.6368637084961,0.6829795837402344,-126.62171936035156],"type":"VEC3"},{"bufferView":2,"byteOffset":223008,"componentType":5126,"count":3736,"max":[1.0,0.9981600046157837,0.998160183429718],"min":[-1.0,-0.9981601238250732,-0.9981600046157837],"type":"VEC3"},{"bufferView":3,"byteOffset":118784,"componentType":5126,"count":3736,"max":[0.9887973070144653,0.9999721646308899,0.9999722838401794,1.0],"min":[-0.9887984991073608,-0.9999721646308899,-0.9999721646308899,-1.0],"type":"VEC4"},{"bufferView":1,"byteOffset":59392,"componentType":5126,"count":3736,"max":[0.999622106552124,0.4232129752635956],"min":[0.000434190034866333,0.0003135204315185547],"type":"VEC2"},{"bufferView":0,"byteOffset":140376,"componentType":5125,"count":18432,"type":"SCALAR"},{"bufferView":2,"byteOffset":267840,"componentType":5126,"count":445,"max":[52.306182861328125,122.7920150756836,73.27162170410156],"min":[-52.306182861328125,75.61286926269531,-132.6332550048828],"type":"VEC3"},{"bufferView":2,"byteOffset":273180,"componentType":5126,"count":445,"max":[0.4512050747871399,0.611343502998352,0.853992223739624],"min":[-0.4512074887752533,-0.6189848780632019,-0.9991897940635681],"type":"VEC3"},{"bufferView":3,"byteOffset":178560,"componentType":5126,"count":445,"max":[1.0,0.27794113755226135,0.3558581471443176,1.0],"min":[-1.0,-0.3340549170970917,-0.35583144426345825,1.0],"type":"VEC4"},{"bufferView":1,"byteOffset":89280,"componentType":5126,"count":445,"max":[0.7915812730789185,0.7390120029449463],"min":[0.0068180859088897705,0.35469311475753784],"type":"VEC2"},{"bufferView":0,"byteOffset":214104,"componentType":5125,"count":1992,"type":"SCALAR"},{"bufferView":2,"byteOffset":278520,"componentType":5126,"count":1044,"max":[61.884159088134766,120.18514251708984,148.08192443847656],"min":[-61.884159088134766,40.74961471557617,-146.7041473388672],"type":"VEC3"},{"bufferView":2,"byteOffset":291048,"componentType":5126,"count":1044,"max":[0.9988310933113098,1.0,1.0],"min":[-0.9988310933113098,-1.0,-1.0],"type":"VEC3"},{"bufferView":3,"byteOffset":185680,"componentType":5126,"count":1044,"max":[0.9999600052833557,1.0,1.0,1.0],"min":[-0.9999953508377075,-1.0,-1.0,-1.0],"type":"VEC4"},{"bufferView":1,"byteOffset":92840,"componentType":5126,"count":1044,"max":[0.9977400898933411,0.997902512550354],"min":[0.009905144572257996,0.11308205127716064],"type":"VEC2"},{"bufferView":0,"byteOffset":222072,"componentType":5125,"count":4272,"type":"SCALAR"},{"bufferView":2,"byteOffset":303576,"componentType":5126,"count":2126,"max":[54.9079704284668,126.4259033203125,60.0272331237793],"min":[-54.9079704284668,18.468475341796875,-63.92365264892578],"type":"VEC3"},{"bufferView":2,"byteOffset":329088,"componentType":5126,"count":2126,"max":[1.0,0.9997499585151672,1.0],"min":[-1.0,-0.9999959468841553,-1.0],"type":"VEC3"},{"bufferView":3,"byteOffset":202384,"componentType":5126,"count":2126,"max":[1.0,0.9995139241218567,0.9989054799079895,1.0],"min":[-1.0,-0.9997959136962891,-0.9971887469291687,-1.0],"type":"VEC4"},{"bufferView":1,"byteOffset":101192,"componentType":5126,"count":2126,"max":[0.9968528747558594,0.998046875],"min":[0.0019531199941411614,0.0019531199941411614],"type":"VEC2"},{"bufferView":0,"byteOffset":239160,"componentType":5125,"count":9288,"type":"SCALAR"},{"bufferView":2,"byteOffset":354600,"componentType":5126,"count":2855,"max":[57.76165771484375,125.90309143066406,98.75052642822266],"min":[-57.76165771484375,19.60529899597168,-105.01138305664062],"type":"VEC3"},{"bufferView":2,"byteOffset":388860,"componentType":5126,"count":2855,"max":[1.0,1.0,0.999826967716217],"min":[-1.0,-1.0,-0.999983549118042],"type":"VEC3"},{"bufferView":3,"byteOffset":236400,"componentType":5126,"count":2855,"max":[0.9999999403953552,0.9993937015533447,0.993759274482727,1.0],"min":[-1.0,-1.0,-1.0,1.0],"type":"VEC4"},{"bufferView":1,"byteOffset":118200,"componentType":5126,"count":2855,"max":[0.9975926876068115,0.9939152002334595],"min":[0.0019531199941411614,0.0019531199941411614],"type":"VEC2"},{"bufferView":0,"byteOffset":276312,"componentType":5125,"count":12960,"type":"SCALAR"},{"bufferView":2,"byteOffset":423120,"componentType":5126,"count":5510,"max":[69.72657775878906,96.83487701416016,155.03036499023438],"min":[-69.72657775878906,15.85596752166748,-153.2447509765625],"type":"VEC3"},{"bufferView":2,"byteOffset":489240,"componentType":5126,"count":5510,"max":[1.0,1.0,1.0],"min":[-1.0,-1.0,-1.0],"type":"VEC3"},{"bufferView":3,"byteOffset":282080,"componentType":5126,"count":5510,"max":[1.0,0.9999997615814209,0.9999909996986389,1.0],"min":[-1.0,-0.9999998807907104,-1.0,-1.0],"type":"VEC4"},{"bufferView":1,"byteOffset":141040,"componentType":5126,"count":5510,"max":[0.9968630075454712,0.9966652989387512],"min":[0.0019531199941411614,0.0019531199941411614],"type":"VEC2"},{"bufferView":0,"byteOffset":328152,"componentType":5125,"count":24216,"type":"SCALAR"},{"bufferView":2,"byteOffset":555360,"componentType":5126,"count":2686,"max":[71.36068725585938,96.81690979003906,151.63302612304688],"min":[-71.36068725585938,16.143020629882812,-155.84353637695312],"type":"VEC3"},{"bufferView":2,"byteOffset":587592,"componentType":5126,"count":2686,"max":[1.0,1.0,1.0],"min":[-1.0,-1.0,-1.0],"type":"VEC3"},{"bufferView":3,"byteOffset":370240,"componentType":5126,"count":2686,"max":[1.0,1.0,1.0,1.0],"min":[-1.0,-0.9999967217445374,-1.0,-1.0],"type":"VEC4"},{"bufferView":1,"byteOffset":185120,"componentType":5126,"count":2686,"max":[0.9950920343399048,0.9945359826087952],"min":[0.0019531199941411614,0.0019531199941411614],"type":"VEC2"},{"bufferView":0,"byteOffset":425016,"componentType":5125,"count":12264,"type":"SCALAR"},{"bufferView":4,"componentType":5125,"count":35094,"type":"SCALAR","min":[0],"max":[7423]},{"bufferView":5,"componentType":5126,"count":7424,"type":"VEC3"},{"bufferView":6,"componentType":5126,"count":7424,"type":"VEC3","min":[-68.98391723632812,15.526751518249512,-152.47317504882812],"max":[68.98296356201172,135.86407470703125,147.4424591064453]},{"bufferView":7,"componentType":5126,"count":7424,"type":"VEC4"},{"bufferView":8,"componentType":5126,"count":7424,"type":"VEC2"},{"bufferView":9,"componentType":5125,"count":18432,"type":"SCALAR","min":[0],"max":[3735]},{"bufferView":10,"componentType":5126,"count":3736,"type":"VEC3"},{"bufferView":11,"componentType":5126,"count":3736,"type":"VEC3","min":[-68.6368637084961,0.6829795837402344,-126.62171936035156],"max":[68.6368637084961,49.2213134765625,127.73611450195312]},{"bufferView":12,"componentType":5126,"count":3736,"type":"VEC4"},{"bufferView":13,"componentType":5126,"count":3736,"type":"VEC2"},{"bufferView":14,"componentType":5125,"count":288,"type":"SCALAR","min":[0],"max":[64]},{"bufferView":15,"componentType":5126,"count":65,"type":"VEC3"},{"bufferView":16,"componentType":5126,"count":65,"type":"VEC3","min":[-6.011155605316162,75.61286926269531,62.07780456542969],"max":[6.011155605316162,87.2265396118164,65.1896743774414]},{"bufferView":17,"componentType":5126,"count":65,"type":"VEC4"},{"bufferView":18,"componentType":5126,"count":65,"type":"VEC2"},{"bufferView":19,"componentType":5125,"count":1704,"type":"SCALAR","min":[0],"max":[379]},{"bufferView":20,"componentType":5126,"count":380,"type":"VEC3"},{"bufferView":21,"componentType":5126,"count":380,"type":"VEC3","min":[-52.306182861328125,90.37174224853516,-132.6332550048828],"max":[52.306182861328125,122.7920150756836,73.27162170410156]},{"bufferView":22,"componentType":5126,"count":380,"type":"VEC4"},{"bufferView":23,"componentType":5126,"count":380,"type":"VEC2"},{"bufferView":24,"componentType":5125,"count":2088,"type":"SCALAR","min":[0],"max":[489]},{"bufferView":25,"componentType":5126,"count":490,"type":"VEC3"},{"bufferView":26,"componentType":5126,"count":490,"type":"VEC3","min":[-61.884159088134766,40.74961471557617,-146.7041473388672],"max":[61.884159088134766,83.95965576171875,147.07579040527344]},{"bufferView":27,"componentType":5126,"count":490,"type":"VEC4"},{"bufferView":28,"componentType":5126,"count":490,"type":"VEC2"},{"bufferView":29,"componentType":5125,"count":840,"type":"SCALAR","min":[0],"max":[295]},{"bufferView":30,"componentType":5126,"count":296,"type":"VEC3"},{"bufferView":31,"componentType":5126,"count":296,"type":"VEC3","min":[-59.249000549316406,85.61747741699219,-101.03146362304688],"max":[59.249000549316406,120.18514251708984,56.518211364746094]},{"bufferView":32,"componentType":5126,"count":296,"type":"VEC4"},{"bufferView":33,"componentType":5126,"count":296,"type":"VEC2"},{"bufferView":34,"componentType":5125,"count":672,"type":"SCALAR","min":[0],"max":[128]},{"bufferView":35,"componentType":5126,"count":129,"type":"VEC3"},{"bufferView":36,"componentType":5126,"count":129,"type":"VEC3","min":[42.36227798461914,56.86878204345703,145.28536987304688],"max":[58.56900405883789,73.07550811767578,148.08192443847656]},{"bufferView":37,"componentType":5126,"count":129,"type":"VEC4"},{"bufferView":38,"componentType":5126,"count":129,"type":"VEC2"},{"bufferView":39,"componentType":5125,"count":672,"type":"SCALAR","min":[0],"max":[128]},{"bufferView":40,"componentType":5126,"count":129,"type":"VEC3"},{"bufferView":41,"componentType":5126,"count":129,"type":"VEC3","min":[-58.56900405883789,56.86878204345703,145.28536987304688],"max":[-42.36227798461914,73.07550811767578,148.08192443847656]},{"bufferView":42,"componentType":5126,"count":129,"type":"VEC4"},{"bufferView":43,"componentType":5126,"count":129,"type":"VEC2"},{"bufferView":44,"componentType":5125,"count":9288,"type":"SCALAR","min":[0],"max":[2125]},{"bufferView":45,"componentType":5126,"count":2126,"type":"VEC3"},{"bufferView":46,"componentType":5126,"count":2126,"type":"VEC3","min":[-54.9079704284668,18.468475341796875,-63.92365264892578],"max":[54.9079704284668,126.4259033203125,60.0272331237793]},{"bufferView":47,"componentType":5126,"count":2126,"type":"VEC4"},{"bufferView":48,"componentType":5126,"count":2126,"type":"VEC2"},{"bufferView":49,"componentType":5125,"count":12960,"type":"SCALAR","min":[0],"max":[2854]},{"bufferView":50,"componentType":5126,"count":2855,"type":"VEC3"},{"bufferView":51,"componentType":5126,"count":2855,"type":"VEC3","min":[-57.76165771484375,19.60529899597168,-105.01138305664062],"max":[57.76165771484375,125.90309143066406,98.75052642822266]},{"bufferView":52,"componentType":5126,"count":2855,"type":"VEC4"},{"bufferView":53,"componentType":5126,"count":2855,"type":"VEC2"},{"bufferView":54,"componentType":5125,"count":24216,"type":"SCALAR","min":[0],"max":[5509]},{"bufferView":55,"componentType":5126,"count":5510,"type":"VEC3"},{"bufferView":56,"componentType":5126,"count":5510,"type":"VEC3","min":[-69.72657775878906,15.85596752166748,-153.2447509765625],"max":[69.72657775878906,96.83487701416016,155.03036499023438]},{"bufferView":57,"componentType":5126,"count":5510,"type":"VEC4"},{"bufferView":58,"componentType":5126,"count":5510,"type":"VEC2"},{"bufferView":59,"componentType":5125,"count":12264,"type":"SCALAR","min":[0],"max":[2685]},{"bufferView":60,"componentType":5126,"count":2686,"type":"VEC3"},{"bufferView":61,"componentType":5126,"count":2686,"type":"VEC3","min":[-71.36068725585938,16.143020629882812,-155.84353637695312],"max":[71.36068725585938,96.81690979003906,151.63302612304688]},{"bufferView":62,"componentType":5126,"count":2686,"type":"VEC4"},{"bufferView":63,"componentType":5126,"count":2686,"type":"VEC2"}],"asset":{"extras":{"author":"Ivan_WSK (https://sketchfab.com/ivan-wsk)","license":"CC-BY-4.0 (http://creativecommons.org/licenses/by/4.0/)","source":"https://sketchfab.com/3d-models/mini-cooper-mk1-0b032262d5a34360ae55390eb23b36f7","title":"Mini Cooper Mk1"},"generator":"Sketchfab-16.65.0","version":"2.0"},"bufferViews":[{"buffer":0,"byteLength":474072,"name":"floatBufferViews","target":34963},{"buffer":0,"byteLength":206608,"byteOffset":474072,"byteStride":8,"name":"floatBufferViews","target":34962},{"buffer":0,"byteLength":619824,"byteOffset":680680,"byteStride":12,"name":"floatBufferViews","target":34962},{"buffer":0,"byteLength":413216,"byteOffset":1300504,"byteStride":16,"name":"floatBufferViews","target":34962},{"buffer":0,"byteOffset":1713720,"byteLength":140376,"target":34963},{"buffer":0,"byteOffset":1854096,"byteLength":89088,"target":34962},{"buffer":0,"byteOffset":1943184,"byteLength":89088,"target":34962},{"buffer":0,"byteOffset":2032272,"byteLength":118784,"target":34962},{"buffer":0,"byteOffset":2151056,"byteLength":59392,"target":34962},{"buffer":0,"byteOffset":2210448,"byteLength":73728,"target":34963},{"buffer":0,"byteOffset":2284176,"byteLength":44832,"target":34962},{"buffer":0,"byteOffset":2329008,"byteLength":44832,"target":34962},{"buffer":0,"byteOffset":2373840,"byteLength":59776,"target":34962},{"buffer":0,"byteOffset":2433616,"byteLength":29888,"target":34962},{"buffer":0,"byteOffset":2463504,"byteLength":1152,"target":34963},{"buffer":0,"byteOffset":2464656,"byteLength":780,"target":34962},{"buffer":0,"byteOffset":2465436,"byteLength":780,"target":34962},{"buffer":0,"byteOffset":2466216,"byteLength":1040,"target":34962},{"buffer":0,"byteOffset":2467256,"byteLength":520,"target":34962},{"buffer":0,"byteOffset":2467776,"byteLength":6816,"target":34963},{"buffer":0,"byteOffset":2474592,"byteLength":4560,"target":34962},{"buffer":0,"byteOffset":2479152,"byteLength":4560,"target":34962},{"buffer":0,"byteOffset":2483712,"byteLength":6080,"target":34962},{"buffer":0,"byteOffset":2489792,"byteLength":3040,"target":34962},{"buffer":0,"byteOffset":2492832,"byteLength":8352,"target":34963},{"buffer":0,"byteOffset":2501184,"byteLength":5880,"target":34962},{"buffer":0,"byteOffset":2507064,"byteLength":5880,"target":34962},{"buffer":0,"byteOffset":2512944,"byteLength":7840,"target":34962},{"buffer":0,"byteOffset":2520784,"byteLength":3920,"target":34962},{"buffer":0,"byteOffset":2524704,"byteLength":3360,"target":34963},{"buffer":0,"byteOffset":2528064,"byteLength":3552,"target":34962},{"buffer":0,"byteOffset":2531616,"byteLength":3552,"target":34962},{"buffer":0,"byteOffset":2535168,"byteLength":4736,"target":34962},{"buffer":0,"byteOffset":2539904,"byteLength":2368,"target":34962},{"buffer":0,"byteOffset":2542272,"byteLength":2688,"target":34963},{"buffer":0,"byteOffset":2544960,"byteLength":1548,"target":34962},{"buffer":0,"byteOffset":2546508,"byteLength":1548,"target":34962},{"buffer":0,"byteOffset":2548056,"byteLength":2064,"target":34962},{"buffer":0,"byteOffset":2550120,"byteLength":1032,"target":34962},{"buffer":0,"byteOffset":2551152,"byteLength":2688,"target":34963},{"buffer":0,"byteOffset":2553840,"byteLength":1548,"target":34962},{"buffer":0,"byteOffset":2555388,"byteLength":1548,"target":34962},{"buffer":0,"byteOffset":2556936,"byteLength":2064,"target":34962},{"buffer":0,"byteOffset":2559000,"byteLength":1032,"target":34962},{"buffer":0,"byteOffset":2560032,"byteLength":37152,"target":34963},{"buffer":0,"byteOffset":2597184,"byteLength":25512,"target":34962},{"buffer":0,"byteOffset":2622696,"byteLength":25512,"target":34962},{"buffer":0,"byteOffset":2648208,"byteLength":34016,"target":34962},{"buffer":0,"byteOffset":2682224,"byteLength":17008,"target":34962},{"buffer":0,"byteOffset":2699232,"byteLength":51840,"target":34963},{"buffer":0,"byteOffset":2751072,"byteLength":34260,"target":34962},{"buffer":0,"byteOffset":2785332,"byteLength":34260,"target":34962},{"buffer":0,"byteOffset":2819592,"byteLength":45680,"target":34962},{"buffer":0,"byteOffset":2865272,"byteLength":22840,"target":34962},{"buffer":0,"byteOffset":2888112,"byteLength":96864,"target":34963},{"buffer":0,"byteOffset":2984976,"byteLength":66120,"target":34962},{"buffer":0,"byteOffset":3051096,"byteLength":66120,"target":34962},{"buffer":0,"byteOffset":3117216,"byteLength":88160,"target":34962},{"buffer":0,"byteOffset":3205376,"byteLength":44080,"target":34962},{"buffer":0,"byteOffset":3249456,"byteLength":49056,"target":34963},{"buffer":0,"byteOffset":3298512,"byteLength":32232,"target":34962},{"buffer":0,"byteOffset":3330744,"byteLength":32232,"target":34962},{"buffer":0,"byteOffset":3362976,"byteLength":42976,"target":34962},{"buffer":0,"byteOffset":3405952,"byteLength":21488,"target":34962}],"buffers":[{"byteLength":3427440,"uri":"scene.bin"}],"extensionsUsed":["KHR_materials_clearcoat"],"images":[{"uri":"textures/Mini_body_mtl_baseColor.png"},{"uri":"textures/Mini_body_mtl_metallicRoughness.png"},{"uri":"textures/Mini_body_mtl_normal.png"},{"uri":"textures/Mini_body_mtl_clearcoat.png"},{"uri":"textures/Mini_WheelsGlass_mtl_baseColor.png"},{"uri":"textures/Mini_WheelsGlass_mtl_metallicRoughness.png"},{"uri":"textures/Mini_WheelsGlass_mtl_normal.png"},{"uri":"textures/Mini_equip_mtl_baseColor.png"},{"uri":"textures/Mini_equip_mtl_metallicRoughness.png"},{"uri":"textures/Mini_equip_mtl_normal.png"},{"uri":"textures/Mini_equip_mtl_clearcoat.png"}],"materials":[{"doubleSided":true,"extensions":{"KHR_materials_clearcoat":{"clearcoatFactor":0.4007180868115663,"clearcoatNormalTexture":{"index":2},"clearcoatRoughnessFactor":0.1,"clearcoatTexture":{"index":3}}},"name":"Mini_body_mtl","normalTexture":{"index":2},"occlusionTexture":{"index":1,"strength":0.8},"pbrMetallicRoughness":{"baseColorTexture":{"index":0},"metallicRoughnessTexture":{"index":1}},"alphaMode":"OPAQUE"},{"alphaMode":"OPAQUE","doubleSided":true,"name":"Mini_WheelsGlass_mtl","normalTexture":{"index":6},"occlusionTexture":{"index":5,"strength":0.9078086112131121},"pbrMetallicRoughness":{"baseColorTexture":{"index":4},"metallicRoughnessTexture":{"index":5}}},{"doubleSided":true,"extensions":{"KHR_materials_clearcoat":{"clearcoatFactor":0.4,"clearcoatNormalTexture":{"index":9},"clearcoatRoughnessFactor":0.1,"clearcoatTexture":{"index":10}}},"name":"Mini_equip_mtl","normalTexture":{"index":9},"occlusionTexture":{"index":8,"strength":0.8},"pbrMetallicRoughness":{"baseColorTexture":{"index":7},"metallicRoughnessTexture":{"index":8}},"alphaMode":"OPAQUE"},{"name":"TrafficWindowDarkOpaque","pbrMetallicRoughness":{"baseColorFactor":[0.042,0.052,0.052,1],"metallicFactor":0.25,"roughnessFactor":0.2},"alphaMode":"OPAQUE","doubleSided":true}],"meshes":[{"name":"Body_Mini_body_mtl_0","primitives":[{"attributes":{"NORMAL":41,"POSITION":42,"TANGENT":43,"TEXCOORD_0":44},"indices":40,"material":0,"mode":4}]},{"name":"Wheels_Mini_WheelsGlass_mtl_0","primitives":[{"attributes":{"NORMAL":46,"POSITION":47,"TANGENT":48,"TEXCOORD_0":49},"indices":45,"material":1,"mode":4}]},{"name":"Glass02_Mini_WheelsGlass_mtl_0","primitives":[{"attributes":{"NORMAL":51,"POSITION":52,"TANGENT":53,"TEXCOORD_0":54},"indices":50,"material":1,"mode":4},{"attributes":{"NORMAL":56,"POSITION":57,"TANGENT":58,"TEXCOORD_0":59},"indices":55,"material":3,"mode":4}]},{"name":"Glass03_Mini_WheelsGlass_mtl_0","primitives":[{"attributes":{"NORMAL":61,"POSITION":62,"TANGENT":63,"TEXCOORD_0":64},"indices":60,"material":1,"mode":4},{"attributes":{"NORMAL":66,"POSITION":67,"TANGENT":68,"TEXCOORD_0":69},"indices":65,"material":3,"mode":4}]},{"name":"INT001_Mini_equip_mtl_0","primitives":[{"attributes":{"NORMAL":81,"POSITION":82,"TANGENT":83,"TEXCOORD_0":84},"indices":80,"material":2,"mode":4}]},{"name":"INT002_Mini_equip_mtl_0","primitives":[{"attributes":{"NORMAL":86,"POSITION":87,"TANGENT":88,"TEXCOORD_0":89},"indices":85,"material":2,"mode":4}]},{"name":"LP001_Mini_equip_mtl_0","primitives":[{"attributes":{"NORMAL":91,"POSITION":92,"TANGENT":93,"TEXCOORD_0":94},"indices":90,"material":2,"mode":4}]},{"name":"LP002_Mini_equip_mtl_0","primitives":[{"attributes":{"NORMAL":96,"POSITION":97,"TANGENT":98,"TEXCOORD_0":99},"indices":95,"material":2,"mode":4}]},{"name":"HeadlightLeftLensOriginalSurface","primitives":[{"attributes":{"NORMAL":71,"POSITION":72,"TANGENT":73,"TEXCOORD_0":74},"indices":70,"material":1,"mode":4}]},{"name":"HeadlightRightLensOriginalSurface","primitives":[{"attributes":{"NORMAL":76,"POSITION":77,"TANGENT":78,"TEXCOORD_0":79},"indices":75,"material":1,"mode":4}]}],"nodes":[{"children":[1],"matrix":[-1.0,2.8327693431939995e-16,-1.6081226229577284e-16,0.0,1.6081226229577292e-16,2.2204460492503128e-16,-1.0,0.0,-2.832769343193999e-16,-1.0,-2.220446049250313e-16,0.0,0.0,0.0,0.0,1.0],"name":"Sketchfab_model"},{"children":[2],"matrix":[0.009999999776482582,0.0,0.0,0.0,0.0,-0.009999999776482582,0.0,0.0,0.0,0.0,-0.009999999776482582,0.0,0.0,0.0,0.0,1.0],"name":"66254e0b44964f5cb322814f78a8f3d6.fbx"},{"children":[3,5,8,10,12,14,16,18],"name":"RootNode"},{"children":[4],"matrix":[1.0,0.0,0.0,0.0,0.0,-4.3711388064693324e-08,0.999999999999999,0.0,0.0,-0.999999999999999,-4.3711388064693324e-08,0.0,0.0,1.5125570677139606e-14,4.354728180160951e-14,1.0],"name":"Body"},{"mesh":0,"name":"Body_Mini_body_mtl_0"},{"children":[6],"matrix":[1.0,0.0,0.0,0.0,0.0,-4.3711388064693324e-08,0.999999999999999,0.0,0.0,-0.999999999999999,-4.3711388064693324e-08,0.0,60.19517135620117,-0.5575575828552246,24.952146530151367,1.0],"name":"Wheels"},{"children":[7],"matrix":[1.0,0.0,-0.0,0.0,0.0,1.0,0.0,0.0,0.0,0.0,1.0,0.0,-60.19517135620117,-24.952146530151367,-0.5575575828552246,1.0],"name":"Object_6"},{"mesh":1,"name":"Wheels_Mini_WheelsGlass_mtl_0"},{"children":[9],"matrix":[1.0,0.0,0.0,0.0,0.0,-4.3711388064693324e-08,0.999999999999999,0.0,0.0,-0.999999999999999,-4.3711388064693324e-08,0.0,0.0,1.5125570677139606e-14,4.354728180160951e-14,1.0],"name":"Glass02"},{"mesh":2,"name":"Glass02_Mini_WheelsGlass_mtl_0"},{"children":[11,21,23],"matrix":[1.0,0.0,0.0,0.0,0.0,-4.3711388064693324e-08,0.999999999999999,0.0,0.0,-0.999999999999999,-4.3711388064693324e-08,0.0,0.0,0.0,0.0,1.0],"name":"Glass03"},{"mesh":3,"name":"Glass03_Mini_WheelsGlass_mtl_0"},{"children":[13],"matrix":[1.0,0.0,0.0,0.0,0.0,-4.3711388064693324e-08,0.999999999999999,0.0,0.0,-0.999999999999999,-4.3711388064693324e-08,0.0,0.0,1.5125570677139606e-14,4.354728180160951e-14,1.0],"name":"INT001"},{"mesh":4,"name":"INT001_Mini_equip_mtl_0"},{"children":[15],"matrix":[1.0,0.0,0.0,0.0,0.0,-4.3711388064693324e-08,0.999999999999999,0.0,0.0,-0.999999999999999,-4.3711388064693324e-08,0.0,0.0,1.5125570677139606e-14,4.354728180160951e-14,1.0],"name":"INT002"},{"mesh":5,"name":"INT002_Mini_equip_mtl_0"},{"children":[17],"matrix":[1.0,0.0,0.0,0.0,0.0,-4.3711388064693324e-08,0.999999999999999,0.0,0.0,-0.999999999999999,-4.3711388064693324e-08,0.0,0.0,1.5125570677139606e-14,4.354728180160951e-14,1.0],"name":"LP001"},{"mesh":6,"name":"LP001_Mini_equip_mtl_0"},{"children":[19],"matrix":[1.0,0.0,0.0,0.0,0.0,-4.3711388064693324e-08,0.999999999999999,0.0,0.0,-0.999999999999999,-4.3711388064693324e-08,0.0,0.0,1.5125570677139606e-14,4.354728180160951e-14,1.0],"name":"LP002"},{"mesh":7,"name":"LP002_Mini_equip_mtl_0"},{"name":"TrafficMetersYUpFrontMinusZ","matrix":[1.0,0.0,0.0,0.0,0.0,1.0,0.0,0.0,0.0,0.0,1.0,0.0,1.1102230246251565e-16,-0.0068298407473292265,-0.004065841247374857,1.0],"children":[0]},{"name":"HeadlightLeftLens","children":[22]},{"name":"HeadlightLeftLensOriginalSurface11","mesh":8},{"name":"HeadlightRightLens","children":[24]},{"name":"HeadlightRightLensOriginalSurface11","mesh":9}],"samplers":[{"magFilter":9729,"minFilter":9987,"wrapS":10497,"wrapT":10497}],"scene":0,"scenes":[{"name":"Sketchfab_Scene","nodes":[20]}],"textures":[{"sampler":0,"source":0},{"sampler":0,"source":1},{"sampler":0,"source":2},{"sampler":0,"source":3},{"sampler":0,"source":4},{"sampler":0,"source":5},{"sampler":0,"source":6},{"sampler":0,"source":7},{"sampler":0,"source":8},{"sampler":0,"source":9},{"sampler":0,"source":10}]}