{"materials":[{"doubleSided":true,"extensions":{"KHR_materials_specular":{"specularColorFactor":[1.0,1.0,1.0],"specularFactor":0.16914337262742132}},"name":"DB5MI_Cabin_plastics_A1","normalTexture":{"index":1},"pbrMetallicRoughness":{"baseColorTexture":{"index":0},"metallicFactor":0.4860967195328595,"roughnessFactor":0.6140971096292864}},{"doubleSided":true,"extensions":{"KHR_materials_clearcoat":{"clearcoatFactor":1.0,"clearcoatRoughnessFactor":0.04},"KHR_materials_specular":{"specularColorFactor":[1.0,1.0,1.0],"specularFactor":0.41295363947775837}},"name":"DB5MI_Cabin_wood_A1","normalTexture":{"index":1},"pbrMetallicRoughness":{"baseColorTexture":{"index":0},"metallicFactor":0.5043824895466348,"roughnessFactor":0.27276273603881457}},{"doubleSided":true,"extensions":{"KHR_materials_specular":{"specularColorFactor":[1.0,1.0,1.0],"specularFactor":0.3520010727651741}},"name":"DB5MI_Exhaust1","pbrMetallicRoughness":{"baseColorTexture":{"index":2},"metallicRoughnessTexture":{"index":3}}},{"doubleSided":true,"name":"DB5MI_1330010001_004","pbrMetallicRoughness":{"baseColorFactor":[0.0014290002368836875,0.024108376165611196,0.027606939338488443,1.0],"metallicFactor":0.24838170935378087,"roughnessFactor":0.041142982530994375}},{"doubleSided":true,"extensions":{"KHR_materials_specular":{"specularColorFactor":[1.0,1.0,1.0],"specularFactor":0.29104850605258986}},"name":"DB5MI_Cabin_Leather_B1","normalTexture":{"index":1},"pbrMetallicRoughness":{"baseColorTexture":{"index":0},"metallicFactor":0.4373346661627921,"roughnessFactor":0.49828723287537635}},{"doubleSided":true,"extensions":{"KHR_materials_specular":{"specularColorFactor":[1.0,1.0,1.0],"specularFactor":0.364191586107691}},"name":"DB5MI_Cabin_Leather_D1","pbrMetallicRoughness":{"baseColorTexture":{"index":0},"metallicFactor":0.4678109495190842,"roughnessFactor":0.33981055942265725}},{"alphaMode":"BLEND","doubleSided":true,"name":"DB5MI_Logo1","normalTexture":{"index":5},"pbrMetallicRoughness":{"baseColorTexture":{"index":4},"roughnessFactor":0.05946035575013605}},{"doubleSided":true,"emissiveFactor":[0.41142982530994376,0.41142982530994376,0.41142982530994376],"emissiveTexture":{"index":7},"extensions":{"KHR_materials_specular":{"specularColorFactor":[1.0,1.0,1.0],"specularFactor":0.38247735612146627}},"name":"DB5MI_Light1","normalTexture":{"index":8},"pbrMetallicRoughness":{"baseColorTexture":{"index":6},"metallicFactor":0.894478916507174,"roughnessFactor":0.12038131925735392}},{"doubleSided":true,"extensions":{"KHR_materials_specular":{"specularColorFactor":[1.0,1.0,1.0],"specularFactor":0.2605722226962977}},"name":"DB5MI_Engine1","normalTexture":{"index":10,"texCoord":1},"pbrMetallicRoughness":{"baseColorTexture":{"index":9},"metallicFactor":0.7299069863831965,"roughnessFactor":0.1630481159561629}},{"alphaMode":"BLEND","doubleSided":true,"extensions":{"KHR_materials_specular":{"specularColorFactor":[1.0,1.0,1.0],"specularFactor":1.0},"KHR_materials_transmission":{"transmissionFactor":1.0}},"name":"DB5MI_Glass1","pbrMetallicRoughness":{"baseColorFactor":[0.0,0.0,0.0,0.25],"metallicFactor":0.0,"roughnessFactor":0.0}},{"alphaMode":"BLEND","doubleSided":true,"extensions":{"KHR_materials_clearcoat":{"clearcoatFactor":1.0,"clearcoatRoughnessFactor":0.0},"KHR_materials_specular":{"specularColorFactor":[1.0,1.0,1.0],"specularFactor":1.0}},"name":"glass_L","pbrMetallicRoughness":{"baseColorFactor":[0.0,0.0,0.0,0.46171569284782576],"metallicFactor":0.0,"roughnessFactor":0.0}},{"doubleSided":true,"extensions":{"KHR_materials_specular":{"specularColorFactor":[1.0,1.0,1.0],"specularFactor":0.30933427606636515}},"name":"DB5MI_Engine_Carpet_A1","normalTexture":{"index":10},"pbrMetallicRoughness":{"baseColorTexture":{"index":9},"metallicFactor":0.3337153027513988,"roughnessFactor":0.7481927563969718}},{"doubleSided":true,"extensions":{"KHR_materials_specular":{"specularColorFactor":[1.0,1.0,1.0],"specularFactor":0.21790542599748874}},"name":"DB5MI_Cabin1","normalTexture":{"index":1,"texCoord":1},"pbrMetallicRoughness":{"baseColorTexture":{"index":0},"metallicFactor":0.9127646865209493,"roughnessFactor":0.05946035575013605}},{"doubleSided":true,"extensions":{"KHR_materials_specular":{"specularColorFactor":[1.0,1.0,1.0],"specularFactor":0.32152478940888196}},"name":"DB5MI_Cabin_Carpet_A1","normalTexture":{"index":1},"pbrMetallicRoughness":{"baseColorTexture":{"index":0},"metallicFactor":0.2544769660250393,"roughnessFactor":0.8761931464933987}},{"doubleSided":true,"extensions":{"KHR_materials_specular":{"specularColorFactor":[1.0,1.0,1.0],"specularFactor":0.28495324938133143}},"name":"DB5MI_Cabin_Leather_A1","normalTexture":{"index":1},"pbrMetallicRoughness":{"baseColorTexture":{"index":0},"metallicFactor":0.4190488961490168,"roughnessFactor":0.565335056259219}},{"doubleSided":true,"name":"DB5MI_Cabin_Glass1","pbrMetallicRoughness":{"baseColorFactor":[0.27592356247286554,0.27592356247286554,0.27592356247286554,1.0],"roughnessFactor":0.05946035575013605}},{"doubleSided":true,"extensions":{"KHR_materials_specular":{"specularColorFactor":[1.0,1.0,1.0],"specularFactor":0.38247735612146627}},"name":"DB5MI_Cabin_Leather_C1","normalTexture":{"index":1},"pbrMetallicRoughness":{"baseColorTexture":{"index":0},"metallicFactor":0.3702868427789494,"roughnessFactor":0.4190488961490168}},{"doubleSided":true,"name":"DB5MI_Mirror_002","pbrMetallicRoughness":{"baseColorFactor":[0.8,0.8,0.8,1.0],"roughnessFactor":0.0}},{"doubleSided":true,"emissiveFactor":[1.0,1.0,1.0],"emissiveTexture":{"index":12},"extensions":{"KHR_materials_emissive_strength":{"emissiveStrength":3.5809632943643255},"KHR_materials_specular":{"specularColorFactor":[1.0,1.0,1.0],"specularFactor":0.278857992710073}},"name":"DB5MI_Dashboard1","pbrMetallicRoughness":{"baseColorTexture":{"index":11},"metallicFactor":0.3032390193951067,"roughnessFactor":0.30933427606636515}},{"doubleSided":true,"extensions":{"KHR_materials_specular":{"specularColorFactor":[1.0,1.0,1.0],"specularFactor":0.29104850605258986}},"name":"DB5MI_Cabin_Belt_A1","pbrMetallicRoughness":{"baseColorTexture":{"index":13},"metallicFactor":0.46171569284782576,"roughnessFactor":0.3337153027513988}},{"alphaMode":"BLEND","doubleSided":true,"emissiveFactor":[1.0,1.0,1.0],"emissiveTexture":{"index":15},"extensions":{"KHR_materials_emissive_strength":{"emissiveStrength":4.678109495190842},"KHR_materials_specular":{"specularColorFactor":[1.0,1.0,1.0],"specularFactor":0.3154295327376236}},"name":"DB5MI_Cabin_A1","normalTexture":{"index":1},"pbrMetallicRoughness":{"baseColorTexture":{"index":14},"metallicFactor":0.6201923663005449,"roughnessFactor":0.32152478940888196}},{"doubleSided":true,"extensions":{"KHR_materials_specular":{"specularColorFactor":[1.0,1.0,1.0],"specularFactor":0.30933427606636515}},"name":"DB5MI_Engine_Tinfoil_B1","normalTexture":{"index":10},"pbrMetallicRoughness":{"baseColorTexture":{"index":9},"metallicFactor":0.8761931464933987,"roughnessFactor":0.278857992710073}},{"alphaMode":"BLEND","doubleSided":true,"extensions":{"KHR_materials_specular":{"specularColorFactor":[1.0,1.0,1.0],"specularFactor":0.3520010727651741}},"name":"DB5MI_Engine_A1","normalTexture":{"index":10},"pbrMetallicRoughness":{"baseColorTexture":{"index":16},"metallicFactor":0.5958113396155111,"roughnessFactor":0.3520010727651741}},{"doubleSided":true,"extensions":{"KHR_materials_specular":{"specularColorFactor":[1.0,1.0,1.0],"specularFactor":0.22400068266874718}},"name":"DB5MI_Change_Brake1","normalTexture":{"index":18},"pbrMetallicRoughness":{"baseColorTexture":{"index":17},"metallicFactor":0.7542880130682302,"roughnessFactor":0.23009593934000558}},{"doubleSided":true,"extensions":{"KHR_materials_specular":{"specularColorFactor":[1.0,1.0,1.0],"specularFactor":0.37638209945020784}},"name":"DB5MI_Classic_Tyre1","normalTexture":{"index":21},"pbrMetallicRoughness":{"baseColorTexture":{"index":19},"metallicRoughnessTexture":{"index":20},"roughnessFactor":0.3032390193951067}},{"doubleSided":true,"extensions":{"KHR_materials_specular":{"specularColorFactor":[1.0,1.0,1.0],"specularFactor":0.3520010727651741}},"name":"DB5MI_ChangeA_Rim1","normalTexture":{"index":23},"pbrMetallicRoughness":{"baseColorTexture":{"index":22},"roughnessFactor":0.236191196011264}},{"name":"GloveboxInteriorMatteBlack","doubleSided":true,"pbrMetallicRoughness":{"baseColorFactor":[0.012,0.011,0.01,1],"metallicFactor":0,"roughnessFactor":0.98}}],"textures":[{"sampler":0,"source":0},{"sampler":0,"source":1},{"sampler":0,"source":2},{"sampler":0,"source":3},{"sampler":0,"source":4},{"sampler":0,"source":5},{"sampler":0,"source":6},{"sampler":0,"source":7},{"sampler":0,"source":8},{"sampler":0,"source":9},{"sampler":0,"source":10},{"sampler":0,"source":11},{"sampler":0,"source":12},{"sampler":0,"source":13},{"sampler":0,"source":14},{"sampler":0,"source":15},{"sampler":0,"source":16},{"sampler":0,"source":17},{"sampler":0,"source":18},{"sampler":0,"source":19},{"sampler":0,"source":20},{"sampler":0,"source":21},{"sampler":0,"source":22},{"sampler":0,"source":23}],"images":[{"uri":"textures/DB5MI_Cabin_plastics_A1_baseColor.png"},{"uri":"textures/DB5MI_Cabin_plastics_A1_normal.png"},{"uri":"textures/DB5MI_Exhaust1_baseColor.png"},{"uri":"textures/DB5MI_Exhaust1_metallicRoughness.png"},{"uri":"textures/DB5MI_Logo1_baseColor.png"},{"uri":"textures/DB5MI_Logo1_normal.png"},{"uri":"textures/DB5MI_Light1_baseColor.png"},{"uri":"textures/DB5MI_Light1_emissive.png"},{"uri":"textures/DB5MI_Light1_normal.png"},{"uri":"textures/DB5MI_Engine1_baseColor.png"},{"uri":"textures/DB5MI_Engine1_normal.png"},{"uri":"textures/DB5MI_Dashboard1_baseColor.png"},{"uri":"textures/DB5MI_Dashboard1_emissive.png"},{"uri":"textures/DB5MI_Cabin_Belt_A1_baseColor.png"},{"uri":"textures/DB5MI_Cabin_A1_baseColor.png"},{"uri":"textures/DB5MI_Cabin_A1_emissive.png"},{"uri":"textures/DB5MI_Engine_A1_baseColor.png"},{"uri":"textures/DB5MI_Change_Brake1_baseColor.png"},{"uri":"textures/DB5MI_Change_Brake1_normal.png"},{"uri":"textures/DB5MI_Classic_Tyre1_baseColor.png"},{"uri":"textures/DB5MI_Classic_Tyre1_metallicRoughness.png"},{"uri":"textures/DB5MI_Classic_Tyre1_normal.png"},{"uri":"textures/DB5MI_ChangeA_Rim1_baseColor.png"},{"uri":"textures/DB5MI_ChangeA_Rim1_normal.png"}],"samplers":[{"magFilter":9729,"minFilter":9987,"wrapS":10497,"wrapT":10497}],"extensionsUsed":["KHR_materials_specular","KHR_materials_clearcoat","KHR_materials_transmission","KHR_materials_emissive_strength"],"asset":{"version":"2.0","generator":"Pirate Radio metric and semantic adaptation of user-selected DB5","copyright":"Ddiaz Design / CC BY-NC-SA 4.0 (uploader declaration)"},"scene":0,"scenes":[{"nodes":[0]}],"nodes":[{"name":"DB5Roadtrip","children":[1,2,3,4,5,6,7,8,9,10,11,12,13,14,15,16,17,18],"extras":{"units":"meters","forward":"-Z","license":"CC BY-NC-SA 4.0"}},{"name":"BodyStatic","mesh":0,"translation":[0.0,0.0,0.0],"extras":{"sourceComponents":[0,1,2,3,5,6,7,8,9,10,11,12,13,14,15,16,17,18,19,21,22,24,25,26,27,28,29,30,31,32,33,34,35,36,37,38,39,40,41,42,43,44,45,46,47,48,49,50,51,52,53,54,55,56,57,58,59,60,61,62,63,64,65,66,67,68,69,70,71,72,73,74,75,76,77,78,79,80,81,82,83,84,85,86,87,88,89,90,91,92,93,94,95,96,97,98,99,100,101,102,103,104,105,106,107,108,109,110,111,112,113,114,115,116,117,118,119,120,121,122,123,124,125,126,127,128,129,130,131,132,133,134,136,137,138,139,140,141,142,143,144,145,146,147,148,149,150,151,152,153,154,155,156,157,158,159,160,161,162,163,164,165,166,167,168,169,170,171,172,173,174,175,176,177,178,179,180,181,182,183,184,185,186,187,188,189,190,191,192,193,194,195,196,197,198,199,200,201,202,203,204,205,206,207,208,209,210,211,212,213,214,215,216,217,218,220,221,222,223,224,225,226,227,228,229,230,231,232,233,234,235,236,237,238,239,240,241,242,243,244,245,246,247,248,249,250,251,252,253,254,255,256,257,258,259,260,261,262,263,264,265,266,267,268,269,270,271,272,273,274,275,276,277,278,279,280,281,282,283,284,285,286,287,288,289,290,291,292,293,294,295,296,297,298,299,300,301,302,303,304,305,306,307,308,309,310,311,312,313,314,315,316,317,318,319,320,321,322,323,324,325,326,327,328,329,330,331,332,333,334,335,336,337,338,339,340,341,342,343,344,345,346,347,348,349,350,351,352,353,354,355,356,357,358,359,360,361,362,363,364,365,366,367,368,369,370,371,372,373,374,375,376,377,378,379,380,381,382,383,384,385,386,387,388,389,390,391,392,393,394,395,396,397,398,399,400,401,402,403,404,405,406,407,408,409,410,411,412,413,414,415,416,417,418,419,420,421,422,423,424,425,426,427,428,429,430,431,432,433,434,435,436,437,438,439,440,441,442,443,444,445,446,447,448,449,450,451,452,453,454,455,456,457,458,459,460,461,462,463,464,465,466,467,468,469,470,471,472,473,474,475,476,477,478,479,480,481,482,483,484,485,486,487,488,489,490,491,492,493,494,495,496,497,498,499,500,501,502,503,504,505,506,507,508,509,510,511,512,513,514,515,516,517,518,519,520,521,522,523,524,525,526,527,528,529,530,531,532,533,534,535,536,537,538,539,540,541,542,543,544,545,546,547,548,549,550,551,552,553,554,555,556,557,558,559,560,561,562,563,564,565,566,567,568,569,570,571,572,573,574,575,576,577,578,579,580,581,582,583,584,585,586,587,588,589,590,591,592,593,594,595,596,597,598,599,600,601,602,603,604,605,606,607,608,609,610,611,612,613,614,615,616,617,618,619,620,621,622,623,624,625,626,627,628,629,630,631,632,633,634,635,636,637,638,639,640,641,642,643,644,645,646,647,648,649,650,651,652,653,654,655,656,657,658,659,660,661,662,663,664,665,666,667,668,669,670,671,672,673,674,675,676,677,678,679,680,681,682,683,684,685,686,687,688,689,690,691,692,693,694,695,696,697,698,699,700,701,702,703,704,705,706,707,708,709,710,711,712,713,714,715,716,717,718,719,720,721,722,723,724,725,726,727,728,729,730,731,732,733,734,735,736,737,738,739,740,741,742,743,744,745,746,747,748,749,750,751,752,753,754,755,756,757,758,759,760,761,762,763,764,765,766,767,768,769,770,771,772,773,774,775,776,777,778,779,780,781,782,783,784,785,786,787,788,789,790,791,792,793,794,795,796,797,798,799,800,801,802,803,804,805,806,807,808,809,810,811,812,813,814,815,816,817,818,819,820,821,822,823,824,825,826,827,828,829,830,831,832,833,834,835,836,837,838,839,840,841,842,843,844,845,846,847,848,849,850,851,852,853,854,855,856,857,858,859,860,861,862,863,864,865,866,867,868,869,870,871,872,873,874,875,876,877,878,879,880,881,882,883,884,885,886,887,888,889,890,891,892,893,894,895,896,897,898,899,900,901,902,903,904,905,906,907,908,909,910,911,912,913,914,915,916,917,918,919,920,921,922,923,924,925,926,927,928,929,930,931,932,933,934,935,936,937,938,939,940,941,942,943,944,945,946,947,948,949,950,951,952,953,954,955,956,957,958,959,960,961,962,963,964,965,966,967,968,969,970,971,972,973,974,975,976,977,978,979,980,981,982,983,984,985,986,987,988,989,990,991,992,993,994,995,996,997,998,999,1000,1001,1002,1003,1004,1005,1006,1007,1008,1009,1010,1011,1012,1013,1014,1015,1016,1017,1018,1019,1020,1021,1022,1023,1024,1025,1026,1027,1028,1029,1030,1031,1032,1033,1034,1035,1036,1037,1038,1039,1040,1041,1042,1043,1044,1045,1046,1047,1048,1049,1050,1051,1052,1053,1054,1055,1056,1057,1058,1059,1060,1061,1062,1063,1064,1065,1066,1067,1068,1069,1070,1071,1072,1073,1074,1075,1076,1077,1078,1079,1080,1081,1082,1083,1084,1085,1086,1087,1088,1089,1090,1091,1092,1093,1094,1095,1096,1097,1098,1099,1100,1101,1102,1103,1104,1105,1106,1107,1108,1109,1110,1111,1112,1113,1114,1115,1116,1117,1118,1119,1120,1121,1122,1123,1124,1125,1126,1127,1128,1129,1130,1131,1132,1133,1134,1135,1136,1137,1138,1139,1140,1141,1142,1143,1144,1145,1146,1147,1148,1149,1150,1151,1152,1153,1154,1155,1156,1157,1158,1159,1160,1161,1162,1163,1164,1165,1166,1167,1168,1169,1170,1171,1172,1173,1174,1175,1176,1177,1178,1179,1180,1181,1182,1183,1184,1185,1186,1187,1188,1189,1190,1191,1192,1193,1194,1195,1196,1197,1198,1199,1200,1201,1202,1203,1204,1205,1206,1207,1208,1209,1210,1211,1212,1213,1214,1215,1216,1217,1218,1219,1220,1221,1222,1223,1224,1225,1226,1227,1228,1229,1230,1231,1232,1233,1234,1235,1236,1237,1238,1239,1240,1241,1242,1243,1244,1245,1246,1248,1249,1250,1251,1252,1253,1254,1255,1256,1257,1258,1259,1260,1262,1264,1265,1266,1267,1268,1269,1270,1271,1272,1273,1274,1275,1276,1277,1278,1279,1280,1281,1282,1283,1284,1285,1286,1287,1288,1289,1290,1291,1292,1293,1294,1295,1296,1297,1298,1299,1300,1301,1302,1303,1304,1305,1306,1307,1308,1309,1310,1311,1312,1313,1314,1315,1316,1317,1318,1319,1320,1321,1322,1323,1324,1325,1326,1327,1328,1329,1330,1331,1332,1333,1334,1335,1336,1337,1338,1339,1340,1341,1342,1343,1344,1345,1346,1347,1348,1349,1350,1351,1352,1353,1354,1355,1356,1357,1358,1359,1360,1361,1362,1363,1364,1365,1366,1367,1368,1369,1370,1371,1372,1373,1374,1375,1376,1377,1378,1379,1380,1381,1382,1383,1384,1385,1386,1387,1388,1389,1390,1391,1392,1393,1394,1395,1396,1397,1398,1399,1400,1401,1402,1403,1404,1405,1406,1407,1408,1409,1410,1411,1412,1413,1414,1415,1416,1417,1418,1419,1420,1421,1422,1423,1424,1425,1426,1427,1428,1429,1430,1431,1432,1433,1434,1435,1436,1437,1438,1439,1440,1441,1442,1443,1444,1445,1446,1447,1448,1449,1450,1451,1452,1453,1454,1455,1456,1457,1458,1459,1460,1461,1462,1463,1464,1465,1466,1467,1468,1469,1470,1471,1472,1473,1474,1475,1476,1477,1478,1479,1480,1481,1482,1483,1484,1485,1486,1487,1488,1489,1490,1491,1492,1493,1494,1495,1496,1497,1498,1499,1500,1501,1502,1503,1504,1505,1506,1507,1508,1509,1510,1511,1512,1513,1514,1515,1516,1517,1518,1519,1520,1521,1522,1523,1524,1525,1526,1527,1528,1529,1530,1531,1532,1533,1534,1535,1536,1537,1538,1539,1540,1541,1542,1543,1544,1545,1546,1547,1548,1549,1550,1551,1552,1553,1554,1555,1556,1557,1558,1559,1560,1561,1562,1563,1564,1565,1566,1567,1568,1569,1570,1571,1572,1573,1574,1575,1576,1577,1578,1586,1607,1608,1609,1610,1611,1612,1613,1614,1615,1616,1617,1618,1619,1620,1621,1622,1623,1624,1625,1626,1627,1628,1629,1630,1631,1632,1633,1634,1635,1636,1637,1638,1639,1640,1641,1642,1643,1644,1645,1646,1647,1648,1649,1650,1651,1652,1653,1654,1655,1656,1657,1658,1659,1660,1661,1662,1663,1664,1665,1666,1667,1668,1669,1670,1671,1672,1673,1674,1675,1676,1677,1678,1679,1680,1681,1682,1683,1684,1685,1686,1687,1688,1689,1690,1691,1692,1693,1694,1695,1696,1697,1698,1699,1700,1701,1702,1703,1704,1705,1706,1707,1708,1709,1710,1711,1712,1713,1714,1715,1716,1717,1718,1719,1720,1721,1722,1723,1724,1725,1726,1727,1728,1729,1730,1731,1732,1733,1734,1735,1736,1737,1738,1739,1740,1741,1742,1743,1744,1745,1746,1747,1748,1749,1750,1751,1752,1753,1754,1755,1756,1757,1758,1759,1760,1761,1762,1763,1764,1765,1766,1767,1768,1769,1770,1771,1772,1773,1774,1775,1776,1777,1778,1779,1780,1781,1782,1783,1784,1785,1786,1787,1788,1789,1790,1791,1792,1793,1794,1795,1796,1797,1798,1799,1800,1801,1802,1803,1804,1805,1806,1807,1808,1809,1810,1811,1812,1813,1814,1815,1816,1817,1818,1819,1820,1821,1822,1823,1824,1825,1826,1827,1828,1829,1830,1831,1832,1833,1834,1835,1836,1837,1838,1839,1840,1841,1842,1843,1844,1845,1846,1847,1848,1849,1850,1851,1852,1853,1854,1855,1856,1857,1858,1859,1860,1861,1862,1863,1864,1865,1866,1867,1868,1869,1870,1871,1872,1873,1874,1875,1876,1877,1878,1879,1880,1881,1882,1883,1884,1885,1886,1887,1888,1889,1890,1891,1892,1893,1894,1895,1896,1897,1898,1899,1900,1901,1902,1903,1904,1905,1906,1907,1908,1909,1910,1911,1912,1913,1914,1915,1916,1917,1918,1919,1920,1921,1922,1923,1924,1925,1926,1927,1928,1929,1930,1931,1932,1933,1934,1935,1936,1937,1938,1939,1940,1941,1942,1943,1944,1945,1946,1947,1948,1949,1950,1951,1952,1953,1954,1955,1956,1957,1958,1959,1960,1961,1962,1963,1964,1965,1966,1967,1968,1969,1970,1971,1972,1973,1974,1975,1976,1977,1978,1979,1980,1981,1982,1983,1984,1985,1986,1987,1988,1989,1990,1991,1992,1993,1994,1995,1996,1997,1998,1999,2000,2001,2002,2003,2004,2005,2006,2007,2008,2009,2010,2011,2012,2013,2014,2015,2016,2017,2018,2019,2020,2021,2022,2023,2024,2025,2026,2027,2028,2029,2030,2031,2032,2033,2034,2035,2036,2037,2038,2039,2040,2041,2042,2043,2044,2045,2046,2047,2048,2049,2050,2051,2052,2053,2054,2055,2056,2057,2058,2059,2060,2061,2062,2063,2064,2065,2066,2067,2068,2069,2070,2071,2072,2073,2074,2075,2076,2077,2078,2079,2080,2081,2082,2083,2084,2085,2086,2087,2088,2089,2090,2091,2092,2093,2094,2095,2096,2097,2098,2099,2100,2101,2102,2103,2104,2105,2106,2107,2108,2109,2110,2111,2112,2113,2114,2115,2116,2117,2118,2119,2120,2121,2122,2123,2124,2125,2126,2127,2128,2129,2130,2131,2132,2133,2134,2135,2136,2137,2138,2139,2140,2141,2142,2143,2144,2145,2146,2147,2148,2149,2150,2151,2152,2153,2154,2155,2156,2157,2158,2159,2160,2161,2162,2163,2164,2165,2166,2167,2168,2169,2170,2171,2172,2173,2174,2175,2176,2177,2178,2179,2180,2181,2182,2183,2184,2185,2186,2187,2188,2189,2190,2191,2192,2193,2194,2195,2196,2197,2198,2199,2200,2201,2202,2203,2204,2205,2206,2207,2208,2209,2210,2211,2212,2213,2214,2215,2216,2217,2218,2219,2220,2221,2222,2223,2224,2225,2226,2227,2228,2229,2230,2231,2232,2233,2234,2235,2236,2237,2238,2239,2240,2241,2242,2243,2244,2245,2246,2247,2248,2249,2250,2251,2252,2253,2254,2255,2256,2257,2258,2259,2260,2261,2262,2263,2264,2265,2266,2267,2268,2269,2270,2271,2272,2273,2274,2275,2276,2277,2278,2279,2280,2281,2282,2283,2284,2285,2286,2287,2288,2289,2290,2291,2292,2293,2294,2295,2296,2297,2298,2299,2300,2301,2302,2303,2304,2305,2306,2307,2308,2309,2310,2311,2312,2313,2314,2315,2316,2317,2318,2319,2320,2321,2322,2323,2324,2325,2326,2327,2328,2329,2330,2331,2332,2333,2334,2335,2336,2337,2338,2339,2340,2341,2342,2343,2344,2345,2346,2347,2348,2349,2350,2351,2352,2353,2354,2355,2356,2357,2358,2359,2360,2361,2362,2363,2364,2366,2367,2368,2369,2370,2371,2372,2373,2374,2375,2376,2377,2378,2379,2380,2381,2382,2383,2384]}},{"name":"GlassAll","mesh":1,"translation":[0.0,0.0,0.0],"extras":{"sourceComponents":[0,2,3]}},{"name":"GloveboxDoor","mesh":2,"translation":[-0.32939494,0.81088197,-0.48325],"extras":{"sourceComponents":[0,135]}},{"name":"HeadlightLeftLens","mesh":3,"translation":[-0.6659351885318756,0.6598257720470428,-2.131745457649231],"extras":{"sourceComponents":[0,31]}},{"name":"HeadlightRightLens","mesh":4,"translation":[0.6659351885318756,0.6598257720470428,-2.131745457649231],"extras":{"sourceComponents":[0,32]}},{"name":"SteeringWheel","mesh":5,"translation":[0.3384794850834901,0.8705638606079393,-0.24747738346102227],"extras":{"sourceComponents":[4,1247,1261,1263,1579,1580,1581,1582,1583,1584,1585,1587,1588,1589,1590,1591,1592,1593,1594,1595,1596,1597,1598,1599,1600,1601,1602,1603,1604,1605,1606]}},{"name":"RadioTuneKnob","mesh":6,"translation":[0.045870341360569,0.704106330871582,-0.47970524430274963],"extras":{"sourceComponents":[20]}},{"name":"MirrorLeftSurface","mesh":7,"translation":[-0.7581074833869934,0.9829793274402618,-0.23145198076963425],"extras":{"sourceComponents":[21]}},{"name":"MirrorRightSurface","mesh":8,"translation":[0.7581074833869934,0.9829793274402618,-0.23145198076963425],"extras":{"sourceComponents":[22]}},{"name":"RadioVolumeKnob","mesh":9,"translation":[-0.09087743237614632,0.704106330871582,-0.47970524430274963],"extras":{"sourceComponents":[23]}},{"name":"MirrorInteriorSurface","mesh":10,"translation":[-0.0007848665118217468,1.189307689666748,-0.30768680572509766],"extras":{"sourceComponents":[65]}},{"name":"RadioDisplay","mesh":11,"translation":[-0.022542485035955906,0.7100731730461121,-0.4899119883775711],"extras":{"sourceComponents":[219,2365]}},{"name":"GloveboxInterior","mesh":12,"translation":[-0.3295000046491623,0.8634999990463257,-0.5920000076293945],"extras":{"sourceComponents":[-1]}},{"name":"DriverEye","translation":[0.36,1.04,0.15],"extras":{"marker":true}},{"name":"DriverForwardTarget","translation":[0.36,0.92,-0.85],"extras":{"marker":true}},{"name":"HeadlightLeftEmitter","translation":[-0.6659351885318756,0.6598257720470428,-2.2409839725494383],"extras":{"marker":true}},{"name":"HeadlightRightEmitter","translation":[0.6659351885318756,0.6598257720470428,-2.2409839725494383],"extras":{"marker":true}},{"name":"DriverDoor","mesh":13,"translation":[0.705,0.72,-0.59],"extras":{"sourceNodes":[15,17,19,21,152,154]}}],"meshes":[{"name":"BodyStaticGeometry","primitives":[{"attributes":{"NORMAL":0,"POSITION":1,"TEXCOORD_0":2},"indices":211,"mode":4,"material":2},{"attributes":{"NORMAL":4,"POSITION":5,"TEXCOORD_0":6},"indices":216,"mode":4,"material":10},{"attributes":{"NORMAL":8,"POSITION":9,"TANGENT":10,"TEXCOORD_0":11,"TEXCOORD_1":12},"indices":217,"mode":4,"material":8},{"attributes":{"NORMAL":14,"POSITION":15,"TANGENT":16,"TEXCOORD_0":17,"TEXCOORD_1":18},"indices":218,"mode":4,"material":11},{"attributes":{"NORMAL":20,"POSITION":21,"TEXCOORD_0":22},"indices":219,"mode":4,"material":3},{"attributes":{"NORMAL":24,"POSITION":25,"TANGENT":26,"TEXCOORD_0":27,"TEXCOORD_1":28},"indices":224,"mode":4,"material":12},{"attributes":{"NORMAL":30,"POSITION":31,"TANGENT":32,"TEXCOORD_0":33,"TEXCOORD_1":34},"indices":231,"mode":4,"material":14},{"attributes":{"NORMAL":36,"POSITION":37,"TANGENT":38,"TEXCOORD_0":39,"TEXCOORD_1":40},"indices":232,"mode":4,"material":16},{"attributes":{"NORMAL":42,"POSITION":43,"TANGENT":44,"TEXCOORD_0":45,"TEXCOORD_1":46},"indices":233,"mode":4,"material":4},{"attributes":{"NORMAL":48,"POSITION":49,"TANGENT":50,"TEXCOORD_0":51,"TEXCOORD_1":52},"indices":240,"mode":4,"material":0},{"attributes":{"NORMAL":54,"POSITION":55,"TEXCOORD_0":56,"TEXCOORD_1":57},"indices":241,"mode":4,"material":18},{"attributes":{"NORMAL":59,"POSITION":60,"TANGENT":61,"TEXCOORD_0":62,"TEXCOORD_1":63},"indices":242,"mode":4,"material":7},{"attributes":{"NORMAL":65,"POSITION":66,"TEXCOORD_0":67},"indices":243,"mode":4,"material":5},{"attributes":{"NORMAL":69,"POSITION":70,"TANGENT":71,"TEXCOORD_0":72,"TEXCOORD_1":73},"indices":248,"mode":4,"material":13},{"attributes":{"NORMAL":75,"POSITION":76,"TANGENT":77,"TEXCOORD_0":78,"TEXCOORD_1":79},"indices":249,"mode":4,"material":24},{"attributes":{"NORMAL":81,"POSITION":82,"TANGENT":83,"TEXCOORD_0":84,"TEXCOORD_1":85},"indices":250,"mode":4,"material":25},{"attributes":{"NORMAL":87,"POSITION":88,"TANGENT":89,"TEXCOORD_0":90,"TEXCOORD_1":91},"indices":251,"mode":4,"material":21},{"attributes":{"NORMAL":93,"POSITION":94,"TANGENT":95,"TEXCOORD_0":96,"TEXCOORD_1":97},"indices":252,"mode":4,"material":23},{"attributes":{"NORMAL":99,"POSITION":100,"TANGENT":101,"TEXCOORD_0":102,"TEXCOORD_1":103,"TEXCOORD_2":104},"indices":253,"mode":4,"material":20},{"attributes":{"NORMAL":106,"POSITION":107,"TEXCOORD_0":108},"indices":254,"mode":4,"material":19},{"attributes":{"NORMAL":110,"POSITION":111,"TANGENT":112,"TEXCOORD_0":113,"TEXCOORD_1":114,"TEXCOORD_2":115},"indices":255,"mode":4,"material":6},{"attributes":{"NORMAL":117,"POSITION":118,"TANGENT":119,"TEXCOORD_0":120,"TEXCOORD_1":121,"TEXCOORD_2":122},"indices":256,"mode":4,"material":22},{"attributes":{"NORMAL":124,"POSITION":125,"TEXCOORD_0":126},"indices":257,"mode":4,"material":15}]},{"name":"GlassAllGeometry","primitives":[{"attributes":{"NORMAL":128,"POSITION":129,"TEXCOORD_0":130},"indices":258,"mode":4,"material":9}]},{"name":"GloveboxDoorGeometry","primitives":[{"attributes":{"NORMAL":132,"POSITION":133,"TANGENT":134,"TEXCOORD_0":135,"TEXCOORD_1":136},"indices":137,"mode":4,"material":12},{"attributes":{"NORMAL":138,"POSITION":139,"TANGENT":140,"TEXCOORD_0":141,"TEXCOORD_1":142},"indices":143,"mode":4,"material":14}]},{"name":"HeadlightLeftLensGeometry","primitives":[{"attributes":{"NORMAL":144,"POSITION":145,"TEXCOORD_0":146},"indices":147,"mode":4,"material":10}]},{"name":"HeadlightRightLensGeometry","primitives":[{"attributes":{"NORMAL":148,"POSITION":149,"TEXCOORD_0":150},"indices":151,"mode":4,"material":10}]},{"name":"SteeringWheelGeometry","primitives":[{"attributes":{"NORMAL":152,"POSITION":153,"TANGENT":154,"TEXCOORD_0":155,"TEXCOORD_1":156},"indices":157,"mode":4,"material":0},{"attributes":{"NORMAL":158,"POSITION":159,"TANGENT":160,"TEXCOORD_0":161,"TEXCOORD_1":162},"indices":163,"mode":4,"material":1},{"attributes":{"NORMAL":164,"POSITION":165,"TANGENT":166,"TEXCOORD_0":167,"TEXCOORD_1":168},"indices":169,"mode":4,"material":12}]},{"name":"RadioTuneKnobGeometry","primitives":[{"attributes":{"NORMAL":170,"POSITION":171,"TANGENT":172,"TEXCOORD_0":173,"TEXCOORD_1":174},"indices":175,"mode":4,"material":12}]},{"name":"MirrorLeftSurfaceGeometry","primitives":[{"attributes":{"NORMAL":176,"POSITION":177,"TEXCOORD_0":178},"indices":179,"mode":4,"material":17}]},{"name":"MirrorRightSurfaceGeometry","primitives":[{"attributes":{"NORMAL":180,"POSITION":181,"TEXCOORD_0":182},"indices":183,"mode":4,"material":17}]},{"name":"RadioVolumeKnobGeometry","primitives":[{"attributes":{"NORMAL":184,"POSITION":185,"TANGENT":186,"TEXCOORD_0":187,"TEXCOORD_1":188},"indices":189,"mode":4,"material":12}]},{"name":"MirrorInteriorSurfaceGeometry","primitives":[{"attributes":{"NORMAL":190,"POSITION":191,"TEXCOORD_0":192},"indices":193,"mode":4,"material":17}]},{"name":"RadioDisplayGeometry","primitives":[{"attributes":{"NORMAL":194,"POSITION":195,"TANGENT":196,"TEXCOORD_0":197,"TEXCOORD_1":198},"indices":199,"mode":4,"material":12},{"attributes":{"NORMAL":200,"POSITION":201,"TANGENT":202,"TEXCOORD_0":203,"TEXCOORD_1":204,"TEXCOORD_2":205},"indices":206,"mode":4,"material":20}]},{"name":"GloveboxInteriorGeometry","primitives":[{"attributes":{"NORMAL":207,"POSITION":208,"TEXCOORD_0":209},"indices":210,"mode":4,"material":26}]},{"name":"DriverDoorGeometry","primitives":[{"attributes":{"NORMAL":212,"POSITION":213,"TEXCOORD_0":214},"indices":215,"mode":4,"material":2},{"attributes":{"NORMAL":220,"POSITION":221,"TEXCOORD_0":222},"indices":223,"mode":4,"material":3},{"attributes":{"NORMAL":225,"POSITION":226,"TANGENT":227,"TEXCOORD_0":228,"TEXCOORD_1":229},"indices":230,"mode":4,"material":12},{"attributes":{"NORMAL":234,"POSITION":235,"TANGENT":236,"TEXCOORD_0":237,"TEXCOORD_1":238},"indices":239,"mode":4,"material":4},{"attributes":{"NORMAL":244,"POSITION":245,"TEXCOORD_0":246},"indices":247,"mode":4,"material":5},{"attributes":{"NORMAL":259,"POSITION":260,"TEXCOORD_0":261},"indices":262,"mode":4,"material":9}]}],"bufferViews":[{"buffer":0,"byteOffset":0,"byteLength":444768},{"buffer":0,"byteOffset":444768,"byteLength":444768},{"buffer":0,"byteOffset":889536,"byteLength":296512},{"buffer":0,"byteOffset":1186048,"byteLength":629604},{"buffer":0,"byteOffset":1815652,"byteLength":35712},{"buffer":0,"byteOffset":1851364,"byteLength":35712},{"buffer":0,"byteOffset":1887076,"byteLength":23808},{"buffer":0,"byteOffset":1910884,"byteLength":56664},{"buffer":0,"byteOffset":1967548,"byteLength":676428},{"buffer":0,"byteOffset":2643976,"byteLength":676428},{"buffer":0,"byteOffset":3320404,"byteLength":901904},{"buffer":0,"byteOffset":4222308,"byteLength":450952},{"buffer":0,"byteOffset":4673260,"byteLength":450952},{"buffer":0,"byteOffset":5124212,"byteLength":700968},{"buffer":0,"byteOffset":5825180,"byteLength":8244},{"buffer":0,"byteOffset":5833424,"byteLength":8244},{"buffer":0,"byteOffset":5841668,"byteLength":10992},{"buffer":0,"byteOffset":5852660,"byteLength":5496},{"buffer":0,"byteOffset":5858156,"byteLength":5496},{"buffer":0,"byteOffset":5863652,"byteLength":8856},{"buffer":0,"byteOffset":5872508,"byteLength":272532},{"buffer":0,"byteOffset":6145040,"byteLength":272532},{"buffer":0,"byteOffset":6417572,"byteLength":181688},{"buffer":0,"byteOffset":6599260,"byteLength":427668},{"buffer":0,"byteOffset":7026928,"byteLength":513804},{"buffer":0,"byteOffset":7540732,"byteLength":513804},{"buffer":0,"byteOffset":8054536,"byteLength":685072},{"buffer":0,"byteOffset":8739608,"byteLength":342536},{"buffer":0,"byteOffset":9082144,"byteLength":342536},{"buffer":0,"byteOffset":9424680,"byteLength":750720},{"buffer":0,"byteOffset":10175400,"byteLength":228228},{"buffer":0,"byteOffset":10403628,"byteLength":228228},{"buffer":0,"byteOffset":10631856,"byteLength":304304},{"buffer":0,"byteOffset":10936160,"byteLength":152152},{"buffer":0,"byteOffset":11088312,"byteLength":152152},{"buffer":0,"byteOffset":11240464,"byteLength":375996},{"buffer":0,"byteOffset":11616460,"byteLength":6372},{"buffer":0,"byteOffset":11622832,"byteLength":6372},{"buffer":0,"byteOffset":11629204,"byteLength":8496},{"buffer":0,"byteOffset":11637700,"byteLength":4248},{"buffer":0,"byteOffset":11641948,"byteLength":4248},{"buffer":0,"byteOffset":11646196,"byteLength":10128},{"buffer":0,"byteOffset":11656324,"byteLength":50220},{"buffer":0,"byteOffset":11706544,"byteLength":50220},{"buffer":0,"byteOffset":11756764,"byteLength":66960},{"buffer":0,"byteOffset":11823724,"byteLength":33480},{"buffer":0,"byteOffset":11857204,"byteLength":33480},{"buffer":0,"byteOffset":11890684,"byteLength":76824},{"buffer":0,"byteOffset":11967508,"byteLength":11940},{"buffer":0,"byteOffset":11979448,"byteLength":11940},{"buffer":0,"byteOffset":11991388,"byteLength":15920},{"buffer":0,"byteOffset":12007308,"byteLength":7960},{"buffer":0,"byteOffset":12015268,"byteLength":7960},{"buffer":0,"byteOffset":12023228,"byteLength":19116},{"buffer":0,"byteOffset":12042344,"byteLength":4788},{"buffer":0,"byteOffset":12047132,"byteLength":4788},{"buffer":0,"byteOffset":12051920,"byteLength":3192},{"buffer":0,"byteOffset":12055112,"byteLength":3192},{"buffer":0,"byteOffset":12058304,"byteLength":5640},{"buffer":0,"byteOffset":12063944,"byteLength":47964},{"buffer":0,"byteOffset":12111908,"byteLength":47964},{"buffer":0,"byteOffset":12159872,"byteLength":63952},{"buffer":0,"byteOffset":12223824,"byteLength":31976},{"buffer":0,"byteOffset":12255800,"byteLength":31976},{"buffer":0,"byteOffset":12287776,"byteLength":78480},{"buffer":0,"byteOffset":12366256,"byteLength":4920},{"buffer":0,"byteOffset":12371176,"byteLength":4920},{"buffer":0,"byteOffset":12376096,"byteLength":3280},{"buffer":0,"byteOffset":12379376,"byteLength":8304},{"buffer":0,"byteOffset":12387680,"byteLength":11100},{"buffer":0,"byteOffset":12398780,"byteLength":11100},{"buffer":0,"byteOffset":12409880,"byteLength":14800},{"buffer":0,"byteOffset":12424680,"byteLength":7400},{"buffer":0,"byteOffset":12432080,"byteLength":7400},{"buffer":0,"byteOffset":12439480,"byteLength":17688},{"buffer":0,"byteOffset":12457168,"byteLength":25920},{"buffer":0,"byteOffset":12483088,"byteLength":25920},{"buffer":0,"byteOffset":12509008,"byteLength":34560},{"buffer":0,"byteOffset":12543568,"byteLength":17280},{"buffer":0,"byteOffset":12560848,"byteLength":17280},{"buffer":0,"byteOffset":12578128,"byteLength":37440},{"buffer":0,"byteOffset":12615568,"byteLength":441360},{"buffer":0,"byteOffset":13056928,"byteLength":441360},{"buffer":0,"byteOffset":13498288,"byteLength":588480},{"buffer":0,"byteOffset":14086768,"byteLength":294240},{"buffer":0,"byteOffset":14381008,"byteLength":294240},{"buffer":0,"byteOffset":14675248,"byteLength":636672},{"buffer":0,"byteOffset":15311920,"byteLength":143796},{"buffer":0,"byteOffset":15455716,"byteLength":143796},{"buffer":0,"byteOffset":15599512,"byteLength":191728},{"buffer":0,"byteOffset":15791240,"byteLength":95864},{"buffer":0,"byteOffset":15887104,"byteLength":95864},{"buffer":0,"byteOffset":15982968,"byteLength":195768},{"buffer":0,"byteOffset":16178736,"byteLength":60096},{"buffer":0,"byteOffset":16238832,"byteLength":60096},{"buffer":0,"byteOffset":16298928,"byteLength":80128},{"buffer":0,"byteOffset":16379056,"byteLength":40064},{"buffer":0,"byteOffset":16419120,"byteLength":40064},{"buffer":0,"byteOffset":16459184,"byteLength":69840},{"buffer":0,"byteOffset":16529024,"byteLength":2736},{"buffer":0,"byteOffset":16531760,"byteLength":2736},{"buffer":0,"byteOffset":16534496,"byteLength":3648},{"buffer":0,"byteOffset":16538144,"byteLength":1824},{"buffer":0,"byteOffset":16539968,"byteLength":1824},{"buffer":0,"byteOffset":16541792,"byteLength":1824},{"buffer":0,"byteOffset":16543616,"byteLength":2196},{"buffer":0,"byteOffset":16545812,"byteLength":10836},{"buffer":0,"byteOffset":16556648,"byteLength":10836},{"buffer":0,"byteOffset":16567484,"byteLength":7224},{"buffer":0,"byteOffset":16574708,"byteLength":16512},{"buffer":0,"byteOffset":16591220,"byteLength":8976},{"buffer":0,"byteOffset":16600196,"byteLength":8976},{"buffer":0,"byteOffset":16609172,"byteLength":11968},{"buffer":0,"byteOffset":16621140,"byteLength":5984},{"buffer":0,"byteOffset":16627124,"byteLength":5984},{"buffer":0,"byteOffset":16633108,"byteLength":5984},{"buffer":0,"byteOffset":16639092,"byteLength":10944},{"buffer":0,"byteOffset":16650036,"byteLength":612},{"buffer":0,"byteOffset":16650648,"byteLength":612},{"buffer":0,"byteOffset":16651260,"byteLength":816},{"buffer":0,"byteOffset":16652076,"byteLength":408},{"buffer":0,"byteOffset":16652484,"byteLength":408},{"buffer":0,"byteOffset":16652892,"byteLength":408},{"buffer":0,"byteOffset":16653300,"byteLength":456},{"buffer":0,"byteOffset":16653756,"byteLength":564},{"buffer":0,"byteOffset":16654320,"byteLength":564},{"buffer":0,"byteOffset":16654884,"byteLength":376},{"buffer":0,"byteOffset":16655260,"byteLength":480},{"buffer":0,"byteOffset":16655740,"byteLength":21768},{"buffer":0,"byteOffset":16677508,"byteLength":21768},{"buffer":0,"byteOffset":16699276,"byteLength":14512},{"buffer":0,"byteOffset":16713788,"byteLength":30624},{"buffer":0,"byteOffset":16744412,"byteLength":8976},{"buffer":0,"byteOffset":16753388,"byteLength":8976},{"buffer":0,"byteOffset":16762364,"byteLength":11968},{"buffer":0,"byteOffset":16774332,"byteLength":5984},{"buffer":0,"byteOffset":16780316,"byteLength":5984},{"buffer":0,"byteOffset":16786300,"byteLength":14268},{"buffer":0,"byteOffset":16800568,"byteLength":1272},{"buffer":0,"byteOffset":16801840,"byteLength":1272},{"buffer":0,"byteOffset":16803112,"byteLength":1696},{"buffer":0,"byteOffset":16804808,"byteLength":848},{"buffer":0,"byteOffset":16805656,"byteLength":848},{"buffer":0,"byteOffset":16806504,"byteLength":1872},{"buffer":0,"byteOffset":16808376,"byteLength":7608},{"buffer":0,"byteOffset":16815984,"byteLength":7608},{"buffer":0,"byteOffset":16823592,"byteLength":5072},{"buffer":0,"byteOffset":16828664,"byteLength":11088},{"buffer":0,"byteOffset":16839752,"byteLength":7536},{"buffer":0,"byteOffset":16847288,"byteLength":7536},{"buffer":0,"byteOffset":16854824,"byteLength":5024},{"buffer":0,"byteOffset":16859848,"byteLength":11088},{"buffer":0,"byteOffset":16870936,"byteLength":3876},{"buffer":0,"byteOffset":16874812,"byteLength":3876},{"buffer":0,"byteOffset":16878688,"byteLength":5168},{"buffer":0,"byteOffset":16883856,"byteLength":2584},{"buffer":0,"byteOffset":16886440,"byteLength":2584},{"buffer":0,"byteOffset":16889024,"byteLength":6720},{"buffer":0,"byteOffset":16895744,"byteLength":19512},{"buffer":0,"byteOffset":16915256,"byteLength":19512},{"buffer":0,"byteOffset":16934768,"byteLength":26016},{"buffer":0,"byteOffset":16960784,"byteLength":13008},{"buffer":0,"byteOffset":16973792,"byteLength":13008},{"buffer":0,"byteOffset":16986800,"byteLength":32448},{"buffer":0,"byteOffset":17019248,"byteLength":28884},{"buffer":0,"byteOffset":17048132,"byteLength":28884},{"buffer":0,"byteOffset":17077016,"byteLength":38512},{"buffer":0,"byteOffset":17115528,"byteLength":19256},{"buffer":0,"byteOffset":17134784,"byteLength":19256},{"buffer":0,"byteOffset":17154040,"byteLength":43500},{"buffer":0,"byteOffset":17197540,"byteLength":12576},{"buffer":0,"byteOffset":17210116,"byteLength":12576},{"buffer":0,"byteOffset":17222692,"byteLength":16768},{"buffer":0,"byteOffset":17239460,"byteLength":8384},{"buffer":0,"byteOffset":17247844,"byteLength":8384},{"buffer":0,"byteOffset":17256228,"byteLength":17820},{"buffer":0,"byteOffset":17274048,"byteLength":1404},{"buffer":0,"byteOffset":17275452,"byteLength":1404},{"buffer":0,"byteOffset":17276856,"byteLength":936},{"buffer":0,"byteOffset":17277792,"byteLength":2052},{"buffer":0,"byteOffset":17279844,"byteLength":1404},{"buffer":0,"byteOffset":17281248,"byteLength":1404},{"buffer":0,"byteOffset":17282652,"byteLength":936},{"buffer":0,"byteOffset":17283588,"byteLength":2052},{"buffer":0,"byteOffset":17285640,"byteLength":12516},{"buffer":0,"byteOffset":17298156,"byteLength":12516},{"buffer":0,"byteOffset":17310672,"byteLength":16688},{"buffer":0,"byteOffset":17327360,"byteLength":8344},{"buffer":0,"byteOffset":17335704,"byteLength":8344},{"buffer":0,"byteOffset":17344048,"byteLength":17652},{"buffer":0,"byteOffset":17361700,"byteLength":900},{"buffer":0,"byteOffset":17362600,"byteLength":900},{"buffer":0,"byteOffset":17363500,"byteLength":600},{"buffer":0,"byteOffset":17364100,"byteLength":1308},{"buffer":0,"byteOffset":17365408,"byteLength":1848},{"buffer":0,"byteOffset":17367256,"byteLength":1848},{"buffer":0,"byteOffset":17369104,"byteLength":2464},{"buffer":0,"byteOffset":17371568,"byteLength":1232},{"buffer":0,"byteOffset":17372800,"byteLength":1232},{"buffer":0,"byteOffset":17374032,"byteLength":2808},{"buffer":0,"byteOffset":17376840,"byteLength":72},{"buffer":0,"byteOffset":17376912,"byteLength":72},{"buffer":0,"byteOffset":17376984,"byteLength":96},{"buffer":0,"byteOffset":17377080,"byteLength":48},{"buffer":0,"byteOffset":17377128,"byteLength":48},{"buffer":0,"byteOffset":17377176,"byteLength":48},{"buffer":0,"byteOffset":17377224,"byteLength":48},{"buffer":0,"byteOffset":17377272,"byteLength":240},{"buffer":0,"byteOffset":17377512,"byteLength":240},{"buffer":0,"byteOffset":17377752,"byteLength":160},{"buffer":0,"byteOffset":17377912,"byteLength":120},{"buffer":0,"byteOffset":17378032,"byteLength":614412},{"buffer":0,"byteOffset":17992444,"byteLength":11412},{"buffer":0,"byteOffset":18003856,"byteLength":11412},{"buffer":0,"byteOffset":18015268,"byteLength":7608},{"buffer":0,"byteOffset":18022876,"byteLength":15192},{"buffer":0,"byteOffset":18038068,"byteLength":56664},{"buffer":0,"byteOffset":18094732,"byteLength":700968},{"buffer":0,"byteOffset":18795700,"byteLength":8856},{"buffer":0,"byteOffset":18804556,"byteLength":411492},{"buffer":0,"byteOffset":19216048,"byteLength":10536},{"buffer":0,"byteOffset":19226584,"byteLength":10536},{"buffer":0,"byteOffset":19237120,"byteLength":7024},{"buffer":0,"byteOffset":19244144,"byteLength":16176},{"buffer":0,"byteOffset":19260320,"byteLength":697632},{"buffer":0,"byteOffset":19957952,"byteLength":38232},{"buffer":0,"byteOffset":19996184,"byteLength":38232},{"buffer":0,"byteOffset":20034416,"byteLength":50976},{"buffer":0,"byteOffset":20085392,"byteLength":25488},{"buffer":0,"byteOffset":20110880,"byteLength":25488},{"buffer":0,"byteOffset":20136368,"byteLength":53088},{"buffer":0,"byteOffset":20189456,"byteLength":375996},{"buffer":0,"byteOffset":20565452,"byteLength":10128},{"buffer":0,"byteOffset":20575580,"byteLength":44460},{"buffer":0,"byteOffset":20620040,"byteLength":21360},{"buffer":0,"byteOffset":20641400,"byteLength":21360},{"buffer":0,"byteOffset":20662760,"byteLength":28480},{"buffer":0,"byteOffset":20691240,"byteLength":14240},{"buffer":0,"byteOffset":20705480,"byteLength":14240},{"buffer":0,"byteOffset":20719720,"byteLength":32364},{"buffer":0,"byteOffset":20752084,"byteLength":19116},{"buffer":0,"byteOffset":20771200,"byteLength":5640},{"buffer":0,"byteOffset":20776840,"byteLength":78480},{"buffer":0,"byteOffset":20855320,"byteLength":4152},{"buffer":0,"byteOffset":20859472,"byteLength":2460},{"buffer":0,"byteOffset":20861932,"byteLength":2460},{"buffer":0,"byteOffset":20864392,"byteLength":1640},{"buffer":0,"byteOffset":20866032,"byteLength":4152},{"buffer":0,"byteOffset":20870184,"byteLength":17688},{"buffer":0,"byteOffset":20887872,"byteLength":37440},{"buffer":0,"byteOffset":20925312,"byteLength":636672},{"buffer":0,"byteOffset":21561984,"byteLength":195768},{"buffer":0,"byteOffset":21757752,"byteLength":69840},{"buffer":0,"byteOffset":21827592,"byteLength":2196},{"buffer":0,"byteOffset":21829788,"byteLength":16512},{"buffer":0,"byteOffset":21846300,"byteLength":10944},{"buffer":0,"byteOffset":21857244,"byteLength":456},{"buffer":0,"byteOffset":21857700,"byteLength":480},{"buffer":0,"byteOffset":21858180,"byteLength":28176},{"buffer":0,"byteOffset":21886356,"byteLength":2256},{"buffer":0,"byteOffset":21888612,"byteLength":2256},{"buffer":0,"byteOffset":21890868,"byteLength":1504},{"buffer":0,"byteOffset":21892372,"byteLength":2448}],"accessors":[{"bufferView":0,"componentType":5126,"count":37064,"type":"VEC3","min":[-0.9999916553497314,-0.9999920725822449,-1.0],"max":[1.0,0.9999946355819702,1.0]},{"bufferView":1,"componentType":5126,"count":37064,"type":"VEC3","min":[-0.8510651588439941,0.1555173546075821,-2.2850000858306885],"max":[0.8510651588439941,1.3334548473358154,2.2850000858306885]},{"bufferView":2,"componentType":5126,"count":37064,"type":"VEC2"},{"bufferView":3,"componentType":5125,"count":157401,"type":"SCALAR"},{"bufferView":4,"componentType":5126,"count":2976,"type":"VEC3","min":[-0.9996114373207092,-0.9999848008155823,-0.5407243371009827],"max":[0.9996169805526733,0.9996169209480286,0.9988636374473572]},{"bufferView":5,"componentType":5126,"count":2976,"type":"VEC3","min":[-0.6701745390892029,0.5521079301834106,-0.49713554978370667],"max":[0.6701745390892029,0.9390128254890442,2.20334792137146]},{"bufferView":6,"componentType":5126,"count":2976,"type":"VEC2"},{"bufferView":7,"componentType":5125,"count":14166,"type":"SCALAR"},{"bufferView":8,"componentType":5126,"count":56369,"type":"VEC3","min":[-1.0,-1.0,-1.0],"max":[1.0,1.0,1.0]},{"bufferView":9,"componentType":5126,"count":56369,"type":"VEC3","min":[-0.6475632786750793,0.4359108507633209,-2.0980777740478516],"max":[0.6475632786750793,0.9754422307014465,2.170687198638916]},{"bufferView":10,"componentType":5126,"count":56369,"type":"VEC4"},{"bufferView":11,"componentType":5126,"count":56369,"type":"VEC2"},{"bufferView":12,"componentType":5126,"count":56369,"type":"VEC2"},{"bufferView":13,"componentType":5125,"count":175242,"type":"SCALAR"},{"bufferView":14,"componentType":5126,"count":687,"type":"VEC3","min":[-0.9999848008155823,-0.9986753463745117,-0.9996169209480286],"max":[0.9999848008155823,0.9999848008155823,0.9999215602874756]},{"bufferView":15,"componentType":5126,"count":687,"type":"VEC3","min":[-0.6390844583511353,0.45443907380104065,1.3579357862472534],"max":[0.6390844583511353,0.9465500116348267,2.148076057434082]},{"bufferView":16,"componentType":5126,"count":687,"type":"VEC4"},{"bufferView":17,"componentType":5126,"count":687,"type":"VEC2"},{"bufferView":18,"componentType":5126,"count":687,"type":"VEC2"},{"bufferView":19,"componentType":5125,"count":2214,"type":"SCALAR"},{"bufferView":20,"componentType":5126,"count":22711,"type":"VEC3","min":[-0.9999848008155823,-0.9999848008155823,-0.9999848008155823],"max":[0.9999848008155823,0.9999868869781494,0.9999848008155823]},{"bufferView":21,"componentType":5126,"count":22711,"type":"VEC3","min":[-0.8397594690322876,0.19754929840564728,-2.244802236557007],"max":[0.8397594690322876,1.3560662269592285,2.1936964988708496]},{"bufferView":22,"componentType":5126,"count":22711,"type":"VEC2"},{"bufferView":23,"componentType":5125,"count":106917,"type":"SCALAR"},{"bufferView":24,"componentType":5126,"count":42817,"type":"VEC3","min":[-0.9999969601631165,-0.9999848008155823,-0.9999923706054688],"max":[0.9999997615814209,0.9999923706054688,0.9999923706054688]},{"bufferView":25,"componentType":5126,"count":42817,"type":"VEC3","min":[-0.8334786295890808,0.2386898547410965,-0.9553284645080566],"max":[0.8334786295890808,1.283835530281067,1.5677186250686646]},{"bufferView":26,"componentType":5126,"count":42817,"type":"VEC4"},{"bufferView":27,"componentType":5126,"count":42817,"type":"VEC2"},{"bufferView":28,"componentType":5126,"count":42817,"type":"VEC2"},{"bufferView":29,"componentType":5125,"count":187680,"type":"SCALAR"},{"bufferView":30,"componentType":5126,"count":19019,"type":"VEC3","min":[-0.9999848008155823,-0.9999848008155823,-0.9999848008155823],"max":[0.9999848008155823,0.9999923706054688,0.9999848008155823]},{"bufferView":31,"componentType":5126,"count":19019,"type":"VEC3","min":[-0.6839926242828369,0.32756441831588745,-0.9641217589378357],"max":[0.6839926242828369,1.0621188879013062,1.5677186250686646]},{"bufferView":32,"componentType":5126,"count":19019,"type":"VEC4"},{"bufferView":33,"componentType":5126,"count":19019,"type":"VEC2"},{"bufferView":34,"componentType":5126,"count":19019,"type":"VEC2"},{"bufferView":35,"componentType":5125,"count":93999,"type":"SCALAR"},{"bufferView":36,"componentType":5126,"count":531,"type":"VEC3","min":[-0.9716020226478577,-0.9999843835830688,-0.9425113201141357],"max":[0.9720250368118286,0.2621031701564789,0.5879814028739929]},{"bufferView":37,"componentType":5126,"count":531,"type":"VEC3","min":[-0.5734483599662781,0.8642698526382446,-0.3489047586917877],"max":[0.5734483599662781,1.3372234106063843,1.5463634729385376]},{"bufferView":38,"componentType":5126,"count":531,"type":"VEC4"},{"bufferView":39,"componentType":5126,"count":531,"type":"VEC2"},{"bufferView":40,"componentType":5126,"count":531,"type":"VEC2"},{"bufferView":41,"componentType":5125,"count":2532,"type":"SCALAR"},{"bufferView":42,"componentType":5126,"count":4185,"type":"VEC3","min":[-0.9997363090515137,-0.9993621110916138,-0.999369204044342],"max":[0.9997382164001465,0.9999848008155823,0.9986757636070251]},{"bufferView":43,"componentType":5126,"count":4185,"type":"VEC3","min":[-0.7059326171875,0.3473649024963379,-0.5550918579101562],"max":[0.7059326171875,1.241125226020813,1.2951265573501587]},{"bufferView":44,"componentType":5126,"count":4185,"type":"VEC4"},{"bufferView":45,"componentType":5126,"count":4185,"type":"VEC2"},{"bufferView":46,"componentType":5126,"count":4185,"type":"VEC2"},{"bufferView":47,"componentType":5125,"count":19206,"type":"SCALAR"},{"bufferView":48,"componentType":5126,"count":995,"type":"VEC3","min":[-0.997745156288147,-0.9989885091781616,-0.7799956202507019],"max":[0.9998003244400024,0.9886918663978577,0.9999843835830688]},{"bufferView":49,"componentType":5126,"count":995,"type":"VEC3","min":[0.05652831122279167,0.7355108857154846,-0.5838122963905334],"max":[0.6230676174163818,1.0081030130386353,-0.45536690950393677]},{"bufferView":50,"componentType":5126,"count":995,"type":"VEC4"},{"bufferView":51,"componentType":5126,"count":995,"type":"VEC2"},{"bufferView":52,"componentType":5126,"count":995,"type":"VEC2"},{"bufferView":53,"componentType":5125,"count":4779,"type":"SCALAR"},{"bufferView":54,"componentType":5126,"count":399,"type":"VEC3","min":[-0.9996082782745361,-0.9990496635437012,-0.0040002306923270226],"max":[0.9996169209480286,0.9990631937980652,0.9990502595901489]},{"bufferView":55,"componentType":5126,"count":399,"type":"VEC3","min":[-0.06461512297391891,0.7757088541984558,-0.507498562335968],"max":[0.5464403629302979,0.9383847713470459,-0.4789208769798279]},{"bufferView":56,"componentType":5126,"count":399,"type":"VEC2"},{"bufferView":57,"componentType":5126,"count":399,"type":"VEC2"},{"bufferView":58,"componentType":5125,"count":1410,"type":"SCALAR"},{"bufferView":59,"componentType":5126,"count":3997,"type":"VEC3","min":[-0.9999848008155823,-0.9999840259552002,-0.9999848008155823],"max":[0.9999848008155823,0.9999848008155823,0.9999848008155823]},{"bufferView":60,"componentType":5126,"count":3997,"type":"VEC3","min":[-0.7637603282928467,0.37090277671813965,-2.2297277450561523],"max":[0.7637603282928467,0.8052291870117188,2.2837440967559814]},{"bufferView":61,"componentType":5126,"count":3997,"type":"VEC4"},{"bufferView":62,"componentType":5126,"count":3997,"type":"VEC2"},{"bufferView":63,"componentType":5126,"count":3997,"type":"VEC2"},{"bufferView":64,"componentType":5125,"count":19620,"type":"SCALAR"},{"bufferView":65,"componentType":5126,"count":410,"type":"VEC3","min":[-0.9989868998527527,-0.989136815071106,-0.8517923951148987],"max":[0.9990010857582092,0.9814032316207886,0.8648736476898193]},{"bufferView":66,"componentType":5126,"count":410,"type":"VEC3","min":[-0.6854206323623657,0.8197817802429199,-0.3660642206668854],"max":[0.6854206323623657,0.8977436423301697,0.569533109664917]},{"bufferView":67,"componentType":5126,"count":410,"type":"VEC2"},{"bufferView":68,"componentType":5125,"count":2076,"type":"SCALAR"},{"bufferView":69,"componentType":5126,"count":925,"type":"VEC3","min":[-0.9999920129776001,-0.9996082782745361,-0.9999848008155823],"max":[0.9999848008155823,0.9999848008155823,0.9999848008155823]},{"bufferView":70,"componentType":5126,"count":925,"type":"VEC3","min":[-0.6431666016578674,0.2718219757080078,-0.9553284645080566],"max":[0.6431666016578674,0.5740911960601807,0.4635322391986847]},{"bufferView":71,"componentType":5126,"count":925,"type":"VEC4"},{"bufferView":72,"componentType":5126,"count":925,"type":"VEC2"},{"bufferView":73,"componentType":5126,"count":925,"type":"VEC2"},{"bufferView":74,"componentType":5125,"count":4422,"type":"SCALAR"},{"bufferView":75,"componentType":5126,"count":2160,"type":"VEC3","min":[-0.9997972249984741,-0.999643862247467,-0.9996439218521118],"max":[0.9997972249984741,0.9996441006660461,0.9996432662010193]},{"bufferView":76,"componentType":5126,"count":2160,"type":"VEC3","min":[-0.80755215883255,0.0,-1.8297475576400757],"max":[0.8078031539916992,0.6722434163093567,1.3474299907684326]},{"bufferView":77,"componentType":5126,"count":2160,"type":"VEC4"},{"bufferView":78,"componentType":5126,"count":2160,"type":"VEC2"},{"bufferView":79,"componentType":5126,"count":2160,"type":"VEC2"},{"bufferView":80,"componentType":5125,"count":9360,"type":"SCALAR"},{"bufferView":81,"componentType":5126,"count":36780,"type":"VEC3","min":[-0.9999848008155823,-0.9999848008155823,-0.9999848008155823],"max":[0.9999848008155823,0.9999848008155823,0.9999848008155823]},{"bufferView":82,"componentType":5126,"count":36780,"type":"VEC3","min":[-0.8344988226890564,0.13014978170394897,-1.6995636224746704],"max":[0.8347498774528503,0.5420041680335999,1.217223882675171]},{"bufferView":83,"componentType":5126,"count":36780,"type":"VEC4"},{"bufferView":84,"componentType":5126,"count":36780,"type":"VEC2"},{"bufferView":85,"componentType":5126,"count":36780,"type":"VEC2"},{"bufferView":86,"componentType":5125,"count":159168,"type":"SCALAR"},{"bufferView":87,"componentType":5126,"count":11983,"type":"VEC3","min":[-0.9999848008155823,-0.9999848008155823,-0.9999923706054688],"max":[0.9999848008155823,0.9999920129776001,0.9999920129776001]},{"bufferView":88,"componentType":5126,"count":11983,"type":"VEC3","min":[-0.5445560812950134,0.4264894723892212,-1.8403105735778809],"max":[0.5445560812950134,0.8787159323692322,-0.8843539953231812]},{"bufferView":89,"componentType":5126,"count":11983,"type":"VEC4"},{"bufferView":90,"componentType":5126,"count":11983,"type":"VEC2"},{"bufferView":91,"componentType":5126,"count":11983,"type":"VEC2"},{"bufferView":92,"componentType":5125,"count":48942,"type":"SCALAR"},{"bufferView":93,"componentType":5126,"count":5008,"type":"VEC3","min":[-1.0,-0.9999843835830688,-0.9999848008155823],"max":[1.0,0.9999848008155823,0.9999843835830688]},{"bufferView":94,"componentType":5126,"count":5008,"type":"VEC3","min":[-0.6802583932876587,0.1891723871231079,-1.6405771970748901],"max":[0.6805094480514526,0.48301777243614197,1.1491577625274658]},{"bufferView":95,"componentType":5126,"count":5008,"type":"VEC4"},{"bufferView":96,"componentType":5126,"count":5008,"type":"VEC2"},{"bufferView":97,"componentType":5126,"count":5008,"type":"VEC2"},{"bufferView":98,"componentType":5125,"count":17460,"type":"SCALAR"},{"bufferView":99,"componentType":5126,"count":228,"type":"VEC3","min":[-0.6405824422836304,-0.5827000737190247,-0.999369204044342],"max":[0.6497976779937744,0.9999848008155823,0.9999848008155823]},{"bufferView":100,"componentType":5126,"count":228,"type":"VEC3","min":[-0.6117619276046753,0.4158118963241577,-0.8070986866950989],"max":[0.6158440709114075,0.8636417388916016,-0.3006994128227234]},{"bufferView":101,"componentType":5126,"count":228,"type":"VEC4"},{"bufferView":102,"componentType":5126,"count":228,"type":"VEC2"},{"bufferView":103,"componentType":5126,"count":228,"type":"VEC2"},{"bufferView":104,"componentType":5126,"count":228,"type":"VEC2"},{"bufferView":105,"componentType":5125,"count":549,"type":"SCALAR"},{"bufferView":106,"componentType":5126,"count":903,"type":"VEC3","min":[-0.9973701238632202,-0.9999227523803711,-0.9855802655220032],"max":[0.9974108934402466,0.9998619556427002,0.9971835017204285]},{"bufferView":107,"componentType":5126,"count":903,"type":"VEC3","min":[-0.5872663855552673,0.2713506519794464,0.05409438908100128],"max":[0.5872663855552673,0.7901549339294434,0.6152170300483704]},{"bufferView":108,"componentType":5126,"count":903,"type":"VEC2"},{"bufferView":109,"componentType":5125,"count":4128,"type":"SCALAR"},{"bufferView":110,"componentType":5126,"count":748,"type":"VEC3","min":[-0.9999215602874756,-0.3053065240383148,-0.9876517653465271],"max":[0.9999227523803711,0.9215719103813171,0.9874472618103027]},{"bufferView":111,"componentType":5126,"count":748,"type":"VEC3","min":[-0.8510651588439941,0.6915444731712341,-2.193298578262329],"max":[0.8510651588439941,0.8014606237411499,2.171290159225464]},{"bufferView":112,"componentType":5126,"count":748,"type":"VEC4"},{"bufferView":113,"componentType":5126,"count":748,"type":"VEC2"},{"bufferView":114,"componentType":5126,"count":748,"type":"VEC2"},{"bufferView":115,"componentType":5126,"count":748,"type":"VEC2"},{"bufferView":116,"componentType":5125,"count":2736,"type":"SCALAR"},{"bufferView":117,"componentType":5126,"count":51,"type":"VEC3","min":[-0.15350621938705444,0.8491079807281494,-0.5282049179077148],"max":[0.16119223833084106,1.0,0.2783008813858032]},{"bufferView":118,"componentType":5126,"count":51,"type":"VEC3","min":[-0.4167388081550598,0.8196752667427063,-1.8352859020233154],"max":[0.013140697032213211,0.8686664700508118,-1.217242956161499]},{"bufferView":119,"componentType":5126,"count":51,"type":"VEC4"},{"bufferView":120,"componentType":5126,"count":51,"type":"VEC2"},{"bufferView":121,"componentType":5126,"count":51,"type":"VEC2"},{"bufferView":122,"componentType":5126,"count":51,"type":"VEC2"},{"bufferView":123,"componentType":5125,"count":114,"type":"SCALAR"},{"bufferView":124,"componentType":5126,"count":47,"type":"VEC3","min":[-0.14600174129009247,-0.9669114947319031,0.20889662206172943],"max":[0.15369750559329987,-0.9639922976493835,0.22346140444278717]},{"bufferView":125,"componentType":5126,"count":47,"type":"VEC3","min":[-0.5084412693977356,1.2103487253189087,-0.30054160952568054],"max":[0.5084412693977356,1.2819513082504272,-0.11454790830612183]},{"bufferView":126,"componentType":5126,"count":47,"type":"VEC2"},{"bufferView":127,"componentType":5125,"count":120,"type":"SCALAR"},{"bufferView":128,"componentType":5126,"count":1814,"type":"VEC3","min":[-0.9971210956573486,-0.9780489802360535,-0.9828535318374634],"max":[0.9971655607223511,0.9546398520469666,0.9911553263664246]},{"bufferView":129,"componentType":5126,"count":1814,"type":"VEC3","min":[-0.6920381784439087,0.8862531185150146,-0.6883891820907593],"max":[0.6920381784439087,1.283835530281067,1.5488759279251099]},{"bufferView":130,"componentType":5126,"count":1814,"type":"VEC2"},{"bufferView":131,"componentType":5125,"count":7656,"type":"SCALAR"},{"bufferView":132,"componentType":5126,"count":748,"type":"VEC3","min":[-0.9993616938591003,-0.9999840259552002,-0.9945937395095825],"max":[0.9998003244400024,0.9999239444732666,0.9997331500053406]},{"bufferView":133,"componentType":5126,"count":748,"type":"VEC3","min":[-0.2195577621459961,-0.0006280518136918545,-0.013256452977657318],"max":[0.21955716609954834,0.11054426431655884,0.019404329359531403]},{"bufferView":134,"componentType":5126,"count":748,"type":"VEC4"},{"bufferView":135,"componentType":5126,"count":748,"type":"VEC2"},{"bufferView":136,"componentType":5126,"count":748,"type":"VEC2"},{"bufferView":137,"componentType":5125,"count":3567,"type":"SCALAR"},{"bufferView":138,"componentType":5126,"count":106,"type":"VEC3","min":[-0.7186338305473328,-0.6366011500358582,0.6324159502983093],"max":[0.6957886219024658,0.7743032574653625,0.997745156288147]},{"bufferView":139,"componentType":5126,"count":106,"type":"VEC3","min":[-0.20888018608093262,0.005652847234159708,-0.01200028508901596],"max":[0.2078595757484436,0.0992385745048523,0.005271770525723696]},{"bufferView":140,"componentType":5126,"count":106,"type":"VEC4"},{"bufferView":141,"componentType":5126,"count":106,"type":"VEC2"},{"bufferView":142,"componentType":5126,"count":106,"type":"VEC2"},{"bufferView":143,"componentType":5125,"count":468,"type":"SCALAR"},{"bufferView":144,"componentType":5126,"count":634,"type":"VEC3","min":[-0.9997963309288025,-0.9980522990226746,-0.9947770237922668],"max":[0.9966217875480652,0.98630291223526,0.30888867378234863]},{"bufferView":145,"componentType":5126,"count":634,"type":"VEC3","min":[-0.0921722948551178,-0.15670904517173767,-0.09923851490020752],"max":[0.0921722948551178,0.15670904517173767,0.09923851490020752]},{"bufferView":146,"componentType":5126,"count":634,"type":"VEC2"},{"bufferView":147,"componentType":5125,"count":2772,"type":"SCALAR"},{"bufferView":148,"componentType":5126,"count":628,"type":"VEC3","min":[-0.996559202671051,-0.9983018040657043,-0.9945266842842102],"max":[0.9998003244400024,0.9859923720359802,0.31050437688827515]},{"bufferView":149,"componentType":5126,"count":628,"type":"VEC3","min":[-0.0921722948551178,-0.15670904517173767,-0.09923851490020752],"max":[0.0921722948551178,0.15670904517173767,0.09923851490020752]},{"bufferView":150,"componentType":5126,"count":628,"type":"VEC2"},{"bufferView":151,"componentType":5125,"count":2772,"type":"SCALAR"},{"bufferView":152,"componentType":5126,"count":323,"type":"VEC3","min":[-0.9933174848556519,-0.8855091333389282,-0.2470957189798355],"max":[0.9934269189834595,0.995138943195343,0.9977384805679321]},{"bufferView":153,"componentType":5126,"count":323,"type":"VEC3","min":[-0.04732602462172508,-0.03983312472701073,-0.005898027680814266],"max":[0.04732600226998329,0.05026543512940407,0.04208822548389435]},{"bufferView":154,"componentType":5126,"count":323,"type":"VEC4"},{"bufferView":155,"componentType":5126,"count":323,"type":"VEC2"},{"bufferView":156,"componentType":5126,"count":323,"type":"VEC2"},{"bufferView":157,"componentType":5125,"count":1680,"type":"SCALAR"},{"bufferView":158,"componentType":5126,"count":1626,"type":"VEC3","min":[-0.9971831440925598,-0.9999843835830688,-0.9943472743034363],"max":[0.9972281455993652,0.9966163635253906,0.9997331500053406]},{"bufferView":159,"componentType":5126,"count":1626,"type":"VEC3","min":[-0.21405187249183655,-0.20055848360061646,-0.08380058407783508],"max":[0.21405187249183655,0.20055842399597168,0.08380058407783508]},{"bufferView":160,"componentType":5126,"count":1626,"type":"VEC4"},{"bufferView":161,"componentType":5126,"count":1626,"type":"VEC2"},{"bufferView":162,"componentType":5126,"count":1626,"type":"VEC2"},{"bufferView":163,"componentType":5125,"count":8112,"type":"SCALAR"},{"bufferView":164,"componentType":5126,"count":2407,"type":"VEC3","min":[-0.9999848008155823,-0.9981824159622192,-0.9931113719940186],"max":[0.9999848008155823,0.9999262690544128,0.9996082782745361]},{"bufferView":165,"componentType":5126,"count":2407,"type":"VEC3","min":[-0.20638614892959595,-0.1983325481414795,-0.08554115891456604],"max":[0.20809051394462585,0.1951758861541748,0.08433321118354797]},{"bufferView":166,"componentType":5126,"count":2407,"type":"VEC4"},{"bufferView":167,"componentType":5126,"count":2407,"type":"VEC2"},{"bufferView":168,"componentType":5126,"count":2407,"type":"VEC2"},{"bufferView":169,"componentType":5125,"count":10875,"type":"SCALAR"},{"bufferView":170,"componentType":5126,"count":1048,"type":"VEC3","min":[-0.9980519413948059,-0.9338852167129517,-0.442797988653183],"max":[0.9976550936698914,0.9611898064613342,0.9991735816001892]},{"bufferView":171,"componentType":5126,"count":1048,"type":"VEC3","min":[-0.015054620802402496,-0.014446139335632324,-0.012404561042785645],"max":[0.015054620802402496,0.014446139335632324,0.012404561042785645]},{"bufferView":172,"componentType":5126,"count":1048,"type":"VEC4"},{"bufferView":173,"componentType":5126,"count":1048,"type":"VEC2"},{"bufferView":174,"componentType":5126,"count":1048,"type":"VEC2"},{"bufferView":175,"componentType":5125,"count":4455,"type":"SCALAR"},{"bufferView":176,"componentType":5126,"count":117,"type":"VEC3","min":[0.043398417532444,-0.5080093741416931,0.451646089553833],"max":[0.8888937830924988,0.5018287301063538,0.9990496635437012]},{"bufferView":177,"componentType":5126,"count":117,"type":"VEC3","min":[-0.057156383991241455,-0.04271027445793152,-0.0362720862030983],"max":[0.057156383991241455,0.04271027445793152,0.0362720862030983]},{"bufferView":178,"componentType":5126,"count":117,"type":"VEC2"},{"bufferView":179,"componentType":5125,"count":513,"type":"SCALAR"},{"bufferView":180,"componentType":5126,"count":117,"type":"VEC3","min":[-0.8872280716896057,-0.5079782009124756,0.4516482651233673],"max":[-0.03549913316965103,0.5036857724189758,0.9993585348129272]},{"bufferView":181,"componentType":5126,"count":117,"type":"VEC3","min":[-0.057156383991241455,-0.04271027445793152,-0.0362720862030983],"max":[0.057156383991241455,0.04271027445793152,0.0362720862030983]},{"bufferView":182,"componentType":5126,"count":117,"type":"VEC2"},{"bufferView":183,"componentType":5125,"count":513,"type":"SCALAR"},{"bufferView":184,"componentType":5126,"count":1043,"type":"VEC3","min":[-0.9976205229759216,-0.9345100522041321,-0.44309812784194946],"max":[0.9980832934379578,0.9611898064613342,0.9990498423576355]},{"bufferView":185,"componentType":5126,"count":1043,"type":"VEC3","min":[-0.015035022050142288,-0.014446139335632324,-0.012404561042785645],"max":[0.015035022050142288,0.014446139335632324,0.012404561042785645]},{"bufferView":186,"componentType":5126,"count":1043,"type":"VEC4"},{"bufferView":187,"componentType":5126,"count":1043,"type":"VEC2"},{"bufferView":188,"componentType":5126,"count":1043,"type":"VEC2"},{"bufferView":189,"componentType":5125,"count":4413,"type":"SCALAR"},{"bufferView":190,"componentType":5126,"count":75,"type":"VEC3","min":[-0.24980533123016357,-0.2977098226547241,0.7450860142707825],"max":[0.6201563477516174,-0.03550095483660698,0.9984267950057983]},{"bufferView":191,"componentType":5126,"count":75,"type":"VEC3","min":[-0.09861050546169281,-0.027322053909301758,-0.024888545274734497],"max":[0.09861050546169281,0.027322053909301758,0.024888545274734497]},{"bufferView":192,"componentType":5126,"count":75,"type":"VEC2"},{"bufferView":193,"componentType":5125,"count":327,"type":"SCALAR"},{"bufferView":194,"componentType":5126,"count":154,"type":"VEC3","min":[-0.9901605248451233,-0.9446308016777039,-0.4349810481071472],"max":[0.9903111457824707,0.9925719499588013,0.9826352596282959]},{"bufferView":195,"componentType":5126,"count":154,"type":"VEC3","min":[-0.04725415259599686,-0.010363519191741943,-0.0047111958265304565],"max":[0.04725415259599686,0.010363519191741943,0.0047111958265304565]},{"bufferView":196,"componentType":5126,"count":154,"type":"VEC4"},{"bufferView":197,"componentType":5126,"count":154,"type":"VEC2"},{"bufferView":198,"componentType":5126,"count":154,"type":"VEC2"},{"bufferView":199,"componentType":5125,"count":702,"type":"SCALAR"},{"bufferView":200,"componentType":5126,"count":6,"type":"VEC3","min":[0.003900025738403201,0.3977026343345642,0.9132880568504333],"max":[0.0040001110173761845,0.40729469060897827,0.9175060987472534]},{"bufferView":201,"componentType":5126,"count":6,"type":"VEC3","min":[-0.038617633283138275,-0.007851123809814453,-0.0037685781717300415],"max":[0.03879449889063835,0.008479297161102295,0.003140464425086975]},{"bufferView":202,"componentType":5126,"count":6,"type":"VEC4"},{"bufferView":203,"componentType":5126,"count":6,"type":"VEC2"},{"bufferView":204,"componentType":5126,"count":6,"type":"VEC2"},{"bufferView":205,"componentType":5126,"count":6,"type":"VEC2"},{"bufferView":206,"componentType":5125,"count":12,"type":"SCALAR"},{"bufferView":207,"componentType":5126,"count":20,"type":"VEC3","min":[-1.0,-1.0,0.0],"max":[1.0,1.0,1.0]},{"bufferView":208,"componentType":5126,"count":20,"type":"VEC3","min":[-0.21150000393390656,-0.051500022411346436,-0.08899998664855957],"max":[0.21150000393390656,0.051500022411346436,0.08899998664855957]},{"bufferView":209,"componentType":5126,"count":20,"type":"VEC2"},{"bufferView":210,"componentType":5125,"count":30,"type":"SCALAR"},{"bufferView":211,"componentType":5125,"count":153603,"type":"SCALAR"},{"bufferView":212,"componentType":5126,"count":951,"type":"VEC3","min":[-0.9361822605133057,-0.9664677977561951,-0.9992488622665405],"max":[0.977482795715332,0.9999848008155823,0.9999227523803711]},{"bufferView":213,"componentType":5126,"count":951,"type":"VEC3","min":[-0.14735551178455353,0.05654296278953552,0.2463049292564392],"max":[0.11118845641613007,0.5004795789718628,1.2177869081497192]},{"bufferView":214,"componentType":5126,"count":951,"type":"VEC2"},{"bufferView":215,"componentType":5125,"count":3798,"type":"SCALAR"},{"bufferView":216,"componentType":5125,"count":14166,"type":"SCALAR"},{"bufferView":217,"componentType":5125,"count":175242,"type":"SCALAR"},{"bufferView":218,"componentType":5125,"count":2214,"type":"SCALAR"},{"bufferView":219,"componentType":5125,"count":102873,"type":"SCALAR"},{"bufferView":220,"componentType":5126,"count":878,"type":"VEC3","min":[-0.9999848008155823,-0.9982442855834961,-0.9964412450790405],"max":[0.9999227523803711,0.9934269189834595,0.9760972261428833]},{"bufferView":221,"componentType":5126,"count":878,"type":"VEC3","min":[-0.0874233990907669,-0.41659051179885864,-0.01753506436944008],"max":[0.13221804797649384,0.1813102662563324,1.1898202896118164]},{"bufferView":222,"componentType":5126,"count":878,"type":"VEC2"},{"bufferView":223,"componentType":5125,"count":4044,"type":"SCALAR"},{"bufferView":224,"componentType":5125,"count":174408,"type":"SCALAR"},{"bufferView":225,"componentType":5126,"count":3186,"type":"VEC3","min":[-0.9999862909317017,-0.9999843835830688,-0.9999843835830688],"max":[0.9996157288551331,0.9999848008155823,0.9999223947525024]},{"bufferView":226,"componentType":5126,"count":3186,"type":"VEC3","min":[-0.15341629087924957,-0.4014861583709717,-0.044135067611932755],"max":[0.11193613708019257,0.5004795789718628,1.2177869081497192]},{"bufferView":227,"componentType":5126,"count":3186,"type":"VEC4"},{"bufferView":228,"componentType":5126,"count":3186,"type":"VEC2"},{"bufferView":229,"componentType":5126,"count":3186,"type":"VEC2"},{"bufferView":230,"componentType":5125,"count":13272,"type":"SCALAR"},{"bufferView":231,"componentType":5125,"count":93999,"type":"SCALAR"},{"bufferView":232,"componentType":5125,"count":2532,"type":"SCALAR"},{"bufferView":233,"componentType":5125,"count":11115,"type":"SCALAR"},{"bufferView":234,"componentType":5126,"count":1780,"type":"VEC3","min":[-0.9997363090515137,-0.9993616938591003,-0.999369204044342],"max":[0.9945266842842102,0.9999848008155823,0.9986757636070251]},{"bufferView":235,"componentType":5126,"count":1780,"type":"VEC3","min":[-0.10238207876682281,-0.3726350963115692,0.03490814194083214],"max":[0.0009326171712018549,0.1137184202671051,1.1383367776870728]},{"bufferView":236,"componentType":5126,"count":1780,"type":"VEC4"},{"bufferView":237,"componentType":5126,"count":1780,"type":"VEC2"},{"bufferView":238,"componentType":5126,"count":1780,"type":"VEC2"},{"bufferView":239,"componentType":5125,"count":8091,"type":"SCALAR"},{"bufferView":240,"componentType":5125,"count":4779,"type":"SCALAR"},{"bufferView":241,"componentType":5125,"count":1410,"type":"SCALAR"},{"bufferView":242,"componentType":5125,"count":19620,"type":"SCALAR"},{"bufferView":243,"componentType":5125,"count":1038,"type":"SCALAR"},{"bufferView":244,"componentType":5126,"count":205,"type":"VEC3","min":[-0.9989868998527527,-0.9881858825683594,-0.848330020904541],"max":[0.5467820763587952,0.9805620908737183,0.8614997863769531]},{"bufferView":245,"componentType":5126,"count":205,"type":"VEC3","min":[-0.10757263004779816,0.09978178143501282,0.2239357829093933],"max":[-0.019579367712140083,0.17774364352226257,1.159533143043518]},{"bufferView":246,"componentType":5126,"count":205,"type":"VEC2"},{"bufferView":247,"componentType":5125,"count":1038,"type":"SCALAR"},{"bufferView":248,"componentType":5125,"count":4422,"type":"SCALAR"},{"bufferView":249,"componentType":5125,"count":9360,"type":"SCALAR"},{"bufferView":250,"componentType":5125,"count":159168,"type":"SCALAR"},{"bufferView":251,"componentType":5125,"count":48942,"type":"SCALAR"},{"bufferView":252,"componentType":5125,"count":17460,"type":"SCALAR"},{"bufferView":253,"componentType":5125,"count":549,"type":"SCALAR"},{"bufferView":254,"componentType":5125,"count":4128,"type":"SCALAR"},{"bufferView":255,"componentType":5125,"count":2736,"type":"SCALAR"},{"bufferView":256,"componentType":5125,"count":114,"type":"SCALAR"},{"bufferView":257,"componentType":5125,"count":120,"type":"SCALAR"},{"bufferView":258,"componentType":5125,"count":7044,"type":"SCALAR"},{"bufferView":259,"componentType":5126,"count":188,"type":"VEC3","min":[-0.9802217483520508,-0.9696505069732666,-0.8717584609985352],"max":[0.9802224040031433,0.9422317147254944,0.9800364971160889]},{"bufferView":260,"componentType":5126,"count":188,"type":"VEC3","min":[-0.14689721167087555,0.17826023697853088,0.277951717376709],"max":[-0.012961821630597115,0.48405566811561584,1.1844960451126099]},{"bufferView":261,"componentType":5126,"count":188,"type":"VEC2"},{"bufferView":262,"componentType":5125,"count":612,"type":"SCALAR"}],"buffers":[{"uri":"db5-door.bin","byteLength":21894820}]}